<svg width="2291" height="481" xmlns="http://www.w3.org/2000/svg" xmlns:xlink="http://www.w3.org/1999/xlink" xml:space="preserve" overflow="hidden"><defs><clipPath id="clip0"><rect x="969" y="351" width="2291" height="481"/></clipPath></defs><g clip-path="url(#clip0)" transform="translate(-969 -351)"><rect x="2730" y="469" width="35" height="123" fill="#FFFFFF"/><path d="M2290 592 2425 592 2425 469 2389.78 469 2389.78 573.829 2325.22 573.829 2325.22 469 2290 469 2290 573.829 2290 592Z" fill="#FFFFFF" fill-rule="evenodd"/><path d="M1994 469 2126 469 2107.95 487.18 2028.96 487.18 2028.96 521.462 2116.51 521.462 2117.96 521.462 2117.96 539.538 2117.96 539.538 2117.96 539.538 2116.51 539.538 2028.96 539.538 2028.96 573.82 2107.23 573.82C2107.33 573.82 2107.33 573.82 2107.33 573.82L2107.95 573.82 2126 592 1994 592 1994 592 1994 469Z" fill="#FFFFFF" fill-rule="evenodd"/><path d="M1823 559.225 1858.11 595.336 1858.11 487.107 1933.3 487.107C1934.44 487.107 1935.27 487.831 1935.27 489.073L1935.27 534.91 1871.68 534.91 1970.9 636 1971 593.577 1934.75 556.328 1971 556.328 1971 486.797C1971 485.555 1971 484.417 1971 483.382 1970.9 478.933 1970.59 475.208 1969.86 473.553 1968.62 471.069 1966.13 469 1962.61 469L1823 469 1823 559.225Z" fill="#FFFFFF" fill-rule="evenodd"/><path d="M2391 774 2425.98 774 2425.98 703.739 2462 728.16 2462 728.16 2462 728.16 2498.02 703.739 2498.02 774 2533 774 2533 652C2509.16 668.039 2485.63 684.802 2462 701.359 2438.47 684.802 2414.84 668.039 2391 652L2391 774Z" fill="#FFFFFF" fill-rule="evenodd"/><path d="M2075 774 2213 774 2213 706.315 2177.59 706.315 2177.59 756.174 2110.13 756.174 2110.13 670.105 2194.32 670.105 2212.44 652 2075 652 2075 774Z" fill="#FFFFFF" fill-rule="evenodd"/><path d="M2180.36 487.18 2236.36 487.18C2237.5 487.18 2238.33 487.907 2238.33 489.154L2238.33 533.72 2180.36 533.72 2180.36 487.18ZM2145 592 2180.36 592 2180.36 551.796 2274 551.796 2274 479.804C2274 473.571 2271.3 469 2265.19 469L2145 469 2145 592Z" fill="#FFFFFF" fill-rule="evenodd"/><path d="M2562.22 518.449 2571 518.449 2571 534.655 2571 592 2442 592 2442 469 2553.96 469C2559.23 469 2562.22 473.467 2562.22 478.869L2562.22 518.449ZM2477.01 536.629 2535.99 536.629 2535.99 573.82 2477.01 573.82 2477.01 536.629ZM2478.98 487.18 2535.47 487.18C2536.5 487.18 2537.43 488.011 2537.43 489.154L2537.43 493.725 2537.43 516.579 2537.43 518.449 2535.47 518.449 2478.98 518.449 2477.01 518.449 2477.01 516.579 2477.01 489.154 2477.01 487.18 2478.98 487.18Z" fill="#FFFFFF" fill-rule="evenodd"/><path d="M2591 469 2626.23 469 2626.23 573.829 2716 573.829 2715.72 573.829 2697.82 592 2626.23 592 2626.23 592 2591 592 2591 592 2591 573.829 2591 469Z" fill="#FFFFFF" fill-rule="evenodd"/><path d="M2784 469 2918 469 2900.13 486.891 2899.85 487.17 2819.18 487.17 2819.18 573.829 2918 573.829 2900.13 591.72 2899.85 592 2819.18 592 2819.18 592 2784 592 2784 592 2784 573.829 2784 487.17 2784 469Z" fill="#FFFFFF" fill-rule="evenodd"/><path d="M3015.88 469 3100.61 469C3104.67 469 3108 472.299 3108 476.32L3108 483.434 3108 483.434 3108 592 3100.61 592 3065.12 592 3038.16 592 3015.88 592 2973 549.522 2973 524.675 2973 524.675 2973 524.675 2973 476.32 2973 476.32 2973 469 2980.39 469 3015.88 469ZM3039.51 489.002 3072.61 489.002 3072.61 574.06 3039.51 574.06 3008.39 543.13 3008.39 542.202 3008.39 519.829 3008.39 489.002 3039.51 489.002Z" fill="#FFFFFF" fill-rule="evenodd"/><path d="M3129 469 3260 469 3242.28 486.891 3242 487.17 3163.9 487.17 3163.9 512.05 3256.12 512.05 3238.12 530.5 3238.12 530.5 3163.9 530.5 3163.9 592 3129 592 3129 487.17 3129 469Z" fill="#FFFFFF" fill-rule="evenodd"/><path d="M2362.09 652C2366.46 652 2370 655.518 2370 659.864L2370 774 2334.72 774 2334.72 722.261 2272.38 722.261 2272.38 774 2237 774 2237 652 2362.09 652ZM2272.38 670.109 2332.74 670.109C2333.89 670.109 2334.72 670.937 2334.72 672.075L2334.72 704.256 2272.38 704.256 2272.38 670.109" fill="#FFFFFF" fill-rule="evenodd"/><path d="M2575.96 652 2686 652 2667.8 669.827 2667.8 670.105 2588.28 670.105 2588.28 703.808 2677.6 703.808 2677.6 721.913 2588.28 721.913 2588.28 756.174 2667.8 756.174 2667.8 756.174 2686 774 2588.28 774 2571.2 774 2553 774 2553 652 2575.96 652Z" fill="#FFFFFF" fill-rule="evenodd"/><path d="M2702 652 2829.71 652C2834.46 652 2838.28 655.932 2838.28 660.589L2838.28 719.881 2819.28 719.881 2806.58 719.881 2855 774 2810.61 774 2762.19 719.881 2762.19 719.881 2744.84 700.428 2746.91 698.358 2803.17 698.358 2803.17 671.868C2803.17 670.937 2802.45 670.109 2801.42 670.109L2776.02 670.109 2738.86 670.109 2737 670.109 2737 671.868 2737 774 2710.88 774 2702 774 2702 652Z" fill="#FFFFFF" fill-rule="evenodd"/><path d="M2870 652 2995 652 2976.86 669.827 2976.58 670.105 2895.67 670.105 2895.67 704.365 2957.61 704.365 2993.05 704.365 2993.05 722.192 2993.05 774 2969.61 774 2957.61 774 2876.14 774 2875.86 774 2858 756.174 2957.61 756.174 2957.61 722.192 2895.67 722.192 2874.74 722.192 2860.51 722.192 2860.51 652 2870 652Z" fill="#FFFFFF" fill-rule="evenodd"/><path d="M1359.87 627.059C1402.54 599.915 1447.18 573.341 1496.37 545.69 1557.53 511.333 1618.62 480.077 1670.03 455.59 1731.88 426.168 1779.24 406.49 1790 403.01 1790 403.2 1790 403.453 1790 403.706L1790 405.035C1789.75 423.954 1779.87 446.542 1759.29 455.97 1653.69 504.183 1397.16 642.498 1298.59 717.666 1314.48 724.373 1379.5 744.747 1455.47 749.366 1490.55 751.58 1510.17 744.114 1523.21 737.47 1541.7 728.106 1562.78 709.314 1582.85 677.931 1609.5 636.36 1627.17 586.058 1627.17 586.058L1353.48 702.86C1353.48 702.86 1592.09 555.245 1750.87 482.671 1748.41 498.995 1727.64 555.498 1700.61 613.392 1684.02 648.952 1662.56 684.068 1643.75 712.92 1599.94 780.179 1560.76 795.808 1553.41 797.833 1542.33 800.933 1485.23 798.718 1441.54 792.454 1350.25 779.23 1247.94 747.847 1214.45 727.094 1223.06 718.805 1284.09 675.273 1359.87 627.059ZM1720.04 351 1717.89 351C1601.02 351.063 1497.7 389.343 1491.11 392.76 1474.84 401.239 1436.92 433.128 1427.74 442.113 1418.18 451.414 1371.52 499.691 1321.32 548.474 1275.55 592.955 1226.73 637.752 1202.11 655.342 1183.75 664.264 1110.5 605.736 1075.87 603.901 1086.76 607.824 1095.24 628.325 1113.92 664.011 1128.03 690.965 1148.61 728.992 1173.55 758.603 1199.45 789.481 1238.57 818.459 1271.87 832 1245.66 805.868 1199.57 746.392 1200.08 732.535 1201.22 700.266 1275.99 650.027 1355 587.577 1398.62 553.03 1601.91 395.101 1777.59 354.48 1758.28 352.076 1738.97 351.063 1720.04 351ZM1065.1 687.801C1037.56 672.869 1014.39 655.912 1009.08 648.445 1004.77 642.371 996.603 626.68 989.512 605.104 978.686 572.328 969 531.138 969 531.138 969 531.138 1013.19 587.957 1052.13 633.703 1092.33 680.968 1127.34 717.223 1127.34 717.223 1127.34 717.223 1094.1 703.619 1065.1 687.801" fill="#FFFFFF" fill-rule="evenodd"/></g></svg>