<svg width="864" height="182" xmlns="http://www.w3.org/2000/svg" xmlns:xlink="http://www.w3.org/1999/xlink" xml:space="preserve" overflow="hidden"><defs><clipPath id="clip0"><rect x="969" y="351" width="864" height="182"/></clipPath></defs><g clip-path="url(#clip0)" transform="translate(-969 -351)"><rect x="1633" y="396" width="12.9998" height="46.0001" fill="#FFFFFF"/><path d="M1467 442 1518 442 1518 396 1504.7 396 1504.7 435.205 1480.3 435.205 1480.3 396 1467 396 1467 435.205 1467 442Z" fill="#FFFFFF" fill-rule="evenodd"/><path d="M1355 396 1405 396 1398.16 402.799 1368.24 402.799 1368.24 415.62 1401.41 415.62 1401.95 415.62 1401.95 422.38 1401.95 422.38 1401.95 422.38 1401.41 422.38 1368.24 422.38 1368.24 435.201 1397.89 435.201C1397.93 435.201 1397.93 435.201 1397.93 435.201L1398.16 435.201 1405 442 1355 442 1355 442 1355 396Z" fill="#FFFFFF" fill-rule="evenodd"/><path d="M1291 430.037 1304.05 443.66 1304.05 402.831 1331.99 402.831C1332.41 402.831 1332.72 403.104 1332.72 403.572L1332.72 420.864 1309.09 420.864 1345.96 459 1346 442.996 1332.53 428.944 1346 428.944 1346 402.714C1346 402.245 1346 401.816 1346 401.426 1345.96 399.747 1345.85 398.342 1345.58 397.717 1345.11 396.781 1344.19 396 1342.88 396L1291 396 1291 430.037Z" fill="#FFFFFF" fill-rule="evenodd"/><path d="M1505 510 1518.06 510 1518.06 483.508 1531.5 492.716 1531.5 492.716 1531.5 492.716 1544.94 483.508 1544.94 510 1558 510 1558 464C1549.1 470.048 1540.32 476.368 1531.5 482.611 1522.72 476.368 1513.9 470.048 1505 464L1505 510Z" fill="#FFFFFF" fill-rule="evenodd"/><path d="M1386 510 1438 510 1438 484.48 1424.66 484.48 1424.66 503.279 1399.24 503.279 1399.24 470.827 1430.96 470.827 1437.79 464 1386 464 1386 510Z" fill="#FFFFFF" fill-rule="evenodd"/><path d="M1425.43 402.799 1446.7 402.799C1447.14 402.799 1447.45 403.071 1447.45 403.537L1447.45 420.204 1425.43 420.204 1425.43 402.799ZM1412 442 1425.43 442 1425.43 426.965 1461 426.965 1461 400.041C1461 397.709 1459.98 396 1457.65 396L1412 396 1412 442Z" fill="#FFFFFF" fill-rule="evenodd"/><path d="M1569.67 414.493 1573 414.493 1573 420.554 1573 442 1524 442 1524 396 1566.53 396C1568.53 396 1569.67 397.671 1569.67 399.691L1569.67 414.493ZM1537.3 421.292 1559.7 421.292 1559.7 435.201 1537.3 435.201 1537.3 421.292ZM1538.04 402.799 1559.5 402.799C1559.9 402.799 1560.25 403.11 1560.25 403.537L1560.25 405.247 1560.25 413.794 1560.25 414.493 1559.5 414.493 1538.04 414.493 1537.3 414.493 1537.3 413.794 1537.3 403.537 1537.3 402.799 1538.04 402.799Z" fill="#FFFFFF" fill-rule="evenodd"/><path d="M1580 396 1593.25 396 1593.25 435.205 1627 435.205 1626.89 435.205 1620.17 442 1593.25 442 1593.25 442 1580 442 1580 442 1580 435.205 1580 396Z" fill="#FFFFFF" fill-rule="evenodd"/><path d="M1653 396 1704 396 1697.2 402.691 1697.09 402.795 1666.39 402.795 1666.39 435.205 1704 435.205 1697.2 441.896 1697.09 442 1666.39 442 1666.39 442 1653 442 1653 442 1653 435.205 1653 402.795 1653 396Z" fill="#FFFFFF" fill-rule="evenodd"/><path d="M1740.2 395 1772.21 395C1773.74 395 1775 396.261 1775 397.797L1775 400.516 1775 400.516 1775 442 1772.21 442 1758.8 442 1748.62 442 1740.2 442 1724 425.769 1724 416.274 1724 416.274 1724 416.274 1724 397.797 1724 397.797 1724 395 1726.79 395 1740.2 395ZM1749.13 402.643 1761.63 402.643 1761.63 435.145 1749.13 435.145 1737.37 423.326 1737.37 422.972 1737.37 414.422 1737.37 402.643 1749.13 402.643Z" fill="#FFFFFF" fill-rule="evenodd"/><path d="M1783 396 1833 396 1826.23 402.691 1826.13 402.795 1796.32 402.795 1796.32 412.1 1831.52 412.1 1824.65 419 1824.65 419 1796.32 419 1796.32 442 1783 442 1783 402.795 1783 396Z" fill="#FFFFFF" fill-rule="evenodd"/><path d="M1494.03 464C1495.67 464 1497 465.327 1497 466.965L1497 510 1483.74 510 1483.74 490.492 1460.3 490.492 1460.3 510 1447 510 1447 464 1494.03 464ZM1460.3 470.828 1482.99 470.828C1483.42 470.828 1483.74 471.14 1483.74 471.569L1483.74 483.703 1460.3 483.703 1460.3 470.828" fill="#FFFFFF" fill-rule="evenodd"/><path d="M1574.63 464 1616 464 1609.16 470.722 1609.16 470.827 1579.26 470.827 1579.26 483.534 1612.84 483.534 1612.84 490.361 1579.26 490.361 1579.26 503.279 1609.16 503.279 1609.16 503.279 1616 510 1579.26 510 1572.84 510 1566 510 1566 464 1574.63 464Z" fill="#FFFFFF" fill-rule="evenodd"/><path d="M1622 464 1670.41 464C1672.21 464 1673.66 465.483 1673.66 467.238L1673.66 489.595 1666.46 489.595 1661.65 489.595 1680 510 1663.17 510 1644.82 489.595 1644.82 489.595 1638.24 482.26 1639.02 481.479 1660.35 481.479 1660.35 471.491C1660.35 471.14 1660.08 470.828 1659.69 470.828L1650.06 470.828 1635.97 470.828 1635.27 470.828 1635.27 471.491 1635.27 510 1625.37 510 1622 510 1622 464Z" fill="#FFFFFF" fill-rule="evenodd"/><path d="M1685.55 464 1733 464 1726.12 470.722 1726.01 470.827 1695.3 470.827 1695.3 483.744 1718.81 483.744 1732.26 483.744 1732.26 490.466 1732.26 510 1723.36 510 1718.81 510 1687.88 510 1687.78 510 1681 503.279 1718.81 503.279 1718.81 490.466 1695.3 490.466 1687.35 490.466 1681.95 490.466 1681.95 464 1685.55 464Z" fill="#FFFFFF" fill-rule="evenodd"/><path d="M1116.11 455.455C1132.17 445.184 1148.97 435.129 1167.49 424.667 1190.5 411.667 1213.5 399.84 1232.85 390.575 1256.13 379.442 1273.95 371.996 1278 370.68 1278 370.751 1278 370.847 1278 370.943L1278 371.446C1277.9 378.604 1274.19 387.151 1266.44 390.718 1226.7 408.961 1130.15 461.297 1093.05 489.739 1099.03 492.276 1123.5 499.985 1152.09 501.733 1165.29 502.571 1172.68 499.746 1177.59 497.232 1184.55 493.689 1192.48 486.578 1200.04 474.704 1210.07 458.974 1216.71 439.941 1216.71 439.941L1113.71 484.136C1113.71 484.136 1203.51 428.282 1263.27 400.821 1262.35 406.998 1254.53 428.378 1244.36 450.284 1238.11 463.739 1230.03 477.026 1222.96 487.943 1206.47 513.392 1191.72 519.306 1188.96 520.072 1184.79 521.245 1163.29 520.407 1146.85 518.037 1112.49 513.033 1073.99 501.159 1061.38 493.306 1064.62 490.17 1087.59 473.698 1116.11 455.455ZM1251.67 351 1250.86 351C1206.87 351.024 1167.99 365.508 1165.51 366.801 1159.38 370.009 1145.11 382.076 1141.66 385.475 1138.06 388.994 1120.5 407.262 1101.6 425.72 1084.37 442.551 1066 459.501 1056.73 466.157 1049.82 469.532 1022.26 447.387 1009.22 446.693 1013.32 448.177 1016.51 455.934 1023.54 469.437 1028.86 479.635 1036.6 494.024 1045.99 505.228 1055.73 516.912 1070.46 527.877 1082.99 533 1073.13 523.112 1055.78 500.608 1055.97 495.365 1056.4 483.155 1084.54 464.146 1114.28 440.516 1130.7 427.444 1207.21 367.687 1273.33 352.317 1266.06 351.407 1258.79 351.024 1251.67 351ZM1005.17 478.438C994.806 472.788 986.085 466.372 984.083 463.547 982.463 461.249 979.389 455.311 976.72 447.147 972.646 434.746 969 419.16 969 419.16 969 419.16 985.632 440.659 1000.29 457.969 1015.42 475.853 1028.59 489.571 1028.59 489.571 1028.59 489.571 1016.08 484.424 1005.17 478.438" fill="#FFFFFF" fill-rule="evenodd"/></g></svg>