<svg width="191" height="18" viewBox="0 0 191 18" fill="none" xmlns="http://www.w3.org/2000/svg">
<g clip-path="url(#clip0_383_2)">
<path d="M191 0H0V18H191V0Z" fill="#E9EFFF"/>
<path d="M36.6939 6.76018H34.6727V12.8802H32.9548V6.76018H30.9336V5.43018H36.6434L36.6939 6.76018Z" fill="#000B68"/>
<path d="M39.0081 8.0001C39.1663 7.76292 39.3772 7.56456 39.6245 7.4201C39.8665 7.27975 40.1424 7.20715 40.4229 7.2101C40.682 7.19673 40.9406 7.24411 41.1777 7.34837C41.4147 7.45264 41.6236 7.61084 41.7872 7.8101C42.1656 8.35469 42.3439 9.01116 42.2925 9.6701V12.8501H40.5442V9.6901C40.5714 9.38431 40.5045 9.07752 40.3521 8.8101C40.278 8.72752 40.1857 8.66292 40.0823 8.62131C39.9789 8.57969 39.8672 8.56217 39.7559 8.5701C39.6046 8.56576 39.4538 8.5895 39.3112 8.6401C39.1953 8.68628 39.0916 8.75811 39.0081 8.8501V12.8501H37.2598V4.8501H39.0081V8.0001Z" fill="#000B68"/>
<path d="M46.6172 12.2198C46.4468 12.4585 46.2217 12.6538 45.9603 12.7898C45.6832 12.9217 45.3784 12.9868 45.071 12.9798C44.8181 12.9939 44.5653 12.9518 44.331 12.8567C44.0966 12.7615 43.8868 12.6157 43.7168 12.4298C43.3464 11.9388 43.1702 11.3305 43.2217 10.7198V7.33984H44.9599V10.7298C44.9406 10.9735 45.0047 11.2165 45.1418 11.4198C45.1988 11.498 45.2754 11.5602 45.3639 11.6005C45.4524 11.6408 45.5499 11.6578 45.6471 11.6498C45.8149 11.654 45.9823 11.6303 46.1422 11.5798C46.2788 11.53 46.4029 11.4515 46.506 11.3498V7.34984H48.2443V12.8898H46.7183L46.6172 12.2198Z" fill="#000B68"/>
<path d="M54.2379 11.65C54.3327 11.6585 54.4282 11.6458 54.5174 11.613C54.6066 11.5801 54.6872 11.5278 54.7533 11.46C54.8812 11.3061 54.9429 11.1086 54.925 10.91H56.5218C56.5393 11.1863 56.4919 11.4629 56.3832 11.7179C56.2744 11.973 56.1074 12.1996 55.8952 12.38C55.4314 12.7704 54.8362 12.9739 54.2277 12.95C53.8629 12.9726 53.4975 12.9143 53.1584 12.7794C52.8192 12.6444 52.5147 12.4363 52.2672 12.17C51.7971 11.6093 51.5492 10.8984 51.5699 10.17V10.05C51.5464 9.32298 51.7906 8.61222 52.2571 8.05004C52.5017 7.78224 52.8039 7.57221 53.1415 7.43548C53.4791 7.29874 53.8434 7.23879 54.2075 7.26004C54.8296 7.2298 55.439 7.44156 55.9053 7.85004C56.1214 8.05494 56.2887 8.30476 56.3953 8.58146C56.5019 8.85815 56.5451 9.15482 56.5218 9.45004H54.925C54.9337 9.22452 54.8738 9.00161 54.7533 8.81004C54.693 8.72654 54.6122 8.65971 54.5184 8.61594C54.4246 8.57217 54.3211 8.55292 54.2176 8.56004C54.0769 8.56263 53.9399 8.60558 53.8233 8.68368C53.7067 8.76178 53.6155 8.87168 53.5608 9.00004C53.4174 9.34173 53.3519 9.71046 53.3688 10.08V10.2C53.3545 10.563 53.42 10.9246 53.5608 11.26C53.6252 11.3814 53.7229 11.4824 53.8427 11.5513C53.9624 11.6203 54.0994 11.6545 54.2379 11.65Z" fill="#000B68"/>
<path d="M60.6351 12.2201C60.4698 12.4632 60.2435 12.6597 59.9783 12.7901C59.7043 12.9207 59.4031 12.9858 59.0991 12.9801C58.8448 12.9936 58.5906 12.9512 58.3547 12.8562C58.1189 12.7611 57.9072 12.6156 57.7348 12.4301C57.3693 11.9366 57.1937 11.3303 57.2396 10.7201V7.3401H58.9879V10.7301C58.9715 10.9722 59.0315 11.2133 59.1597 11.4201C59.2197 11.4976 59.2981 11.5592 59.3881 11.5994C59.4781 11.6395 59.5767 11.657 59.6751 11.6501C59.8396 11.6543 60.0037 11.6306 60.1602 11.5801C60.2968 11.5303 60.4209 11.4518 60.524 11.3501V7.3501H62.2723V12.8901H60.716L60.6351 12.2201ZM61.7569 5.1101C61.7646 5.41762 61.6566 5.717 61.4537 5.9501C61.3577 6.06115 61.2383 6.15004 61.1039 6.21051C60.9694 6.27098 60.8232 6.30156 60.6756 6.3001C60.3811 6.28779 60.0923 6.21634 59.8267 6.0901C59.5902 5.97048 59.3331 5.89585 59.0687 5.8701C59.0107 5.87161 58.9541 5.88809 58.9044 5.9179C58.8548 5.94772 58.8139 5.98984 58.7858 6.0401C58.702 6.1566 58.6594 6.29719 58.6645 6.4401L57.7449 6.1801C57.7437 5.87191 57.8549 5.57365 58.0582 5.3401C58.153 5.23033 58.2708 5.14221 58.4034 5.08179C58.536 5.02137 58.6802 4.99009 58.8262 4.9901C59.1094 5.01212 59.3865 5.08321 59.6448 5.2001C59.8935 5.31403 60.1601 5.38505 60.433 5.4101C60.4901 5.40961 60.5461 5.39464 60.5956 5.36663C60.6452 5.33862 60.6866 5.29849 60.716 5.2501C60.7998 5.13359 60.8424 4.993 60.8373 4.8501L61.7569 5.1101Z" fill="#000B68"/>
<path d="M70.0126 12.1501C69.8381 12.3901 69.6052 12.5827 69.3356 12.7101C68.9395 12.8884 68.5072 12.974 68.0723 12.9601C67.7721 12.9698 67.473 12.919 67.1933 12.8107C66.9136 12.7024 66.6591 12.5389 66.4453 12.3301C66.2297 12.1193 66.0609 11.8664 65.9496 11.5875C65.8382 11.3086 65.7868 11.0098 65.7985 10.7101V9.59011C65.7843 9.00413 65.9977 8.43507 66.3948 8.00011C66.5965 7.79559 66.8391 7.63485 67.107 7.52811C67.3749 7.42137 67.6624 7.37097 67.9511 7.38011C68.4863 7.34946 69.0145 7.51301 69.4366 7.84011C69.6086 7.98208 69.7474 8.15934 69.8434 8.35963C69.9394 8.55992 69.9902 8.77846 69.9924 9.00011H69.285C69.2649 8.69968 69.1315 8.4177 68.9111 8.21011C68.645 7.99328 68.305 7.88588 67.9612 7.91011C67.7672 7.90423 67.5746 7.94374 67.399 8.02541C67.2234 8.10708 67.0698 8.2286 66.9506 8.38011C66.687 8.71685 66.5511 9.13443 66.5666 9.56011V10.6901C66.5507 11.1304 66.7063 11.5599 67.0011 11.8901C67.1372 12.0427 67.3054 12.1639 67.494 12.2452C67.6826 12.3264 67.8869 12.3656 68.0925 12.3601C68.3546 12.3665 68.6155 12.3223 68.8606 12.2301C69.0276 12.1758 69.1774 12.0793 69.2951 11.9501V10.7401H68.0824V10.1601H70.0329L70.0126 12.1501Z" fill="#000B68"/>
<path d="M71.9744 7.79H71.2266V7H71.9744V7.79ZM71.9744 12.88H71.2266V8.88H71.9744V12.88Z" fill="#000B68"/>
<path d="M75.6315 12.8798C75.6315 12.7498 75.6315 12.6498 75.5708 12.5498C75.5655 12.4565 75.5655 12.363 75.5708 12.2698C75.4242 12.4679 75.2386 12.6345 75.0251 12.7598C74.8085 12.8892 74.5606 12.9583 74.3076 12.9598C74.1252 12.9776 73.9411 12.9574 73.767 12.9006C73.593 12.8437 73.4329 12.7515 73.297 12.6298C73.1788 12.5143 73.087 12.3752 73.0277 12.2216C72.9684 12.0681 72.9431 11.9038 72.9534 11.7398C72.9484 11.5607 72.9894 11.3834 73.0725 11.2242C73.1555 11.0651 73.278 10.9294 73.4284 10.8298C73.8326 10.5795 74.3072 10.4639 74.7826 10.4998H75.591V10.0998C75.5963 9.99615 75.5792 9.89261 75.5409 9.79605C75.5025 9.69948 75.4439 9.61211 75.3687 9.53977C75.285 9.46629 75.1875 9.40991 75.0817 9.37387C74.9759 9.33783 74.8639 9.32284 74.7523 9.32977C74.5416 9.31991 74.3341 9.38362 74.1661 9.50977C74.0965 9.56044 74.04 9.62676 74.0014 9.70326C73.9627 9.77976 73.943 9.86424 73.9438 9.94977H73.2263C73.2259 9.79198 73.2632 9.63634 73.3352 9.49556C73.4072 9.35478 73.5119 9.23286 73.6406 9.13977C73.9619 8.87884 74.367 8.74048 74.7826 8.74977C75.1865 8.7322 75.5837 8.85613 75.9043 9.09977C76.047 9.22374 76.1594 9.37817 76.2329 9.55141C76.3064 9.72465 76.3392 9.91215 76.3288 10.0998V12.0498C76.3182 12.1896 76.3182 12.33 76.3288 12.4698C76.345 12.605 76.372 12.7388 76.4096 12.8698L75.6315 12.8798ZM74.3986 12.3298C74.6559 12.3374 74.9096 12.2677 75.1262 12.1298C75.3151 12.0225 75.464 11.8576 75.5506 11.6598V10.9998H74.7118C74.4526 10.9896 74.1983 11.0712 73.9943 11.2298C73.9114 11.2898 73.8437 11.368 73.7964 11.4582C73.749 11.5484 73.7234 11.6482 73.7215 11.7498C73.7188 11.8293 73.7326 11.9085 73.7622 11.9824C73.7917 12.0564 73.8364 12.1236 73.8933 12.1798C74.0372 12.2897 74.2172 12.3431 74.3986 12.3298ZM75.0352 7.25977H75.9043L74.8937 8.25977H74.3379L75.0352 7.25977Z" fill="#000B68"/>
<path d="M79.9665 8.83004L80.0271 9.43004C80.1499 9.22361 80.3238 9.05154 80.5324 8.93004C80.7479 8.80892 80.9921 8.74679 81.2398 8.75004C81.4256 8.74131 81.6112 8.77055 81.7851 8.83593C81.959 8.9013 82.1174 9.00142 82.2504 9.13004C82.5183 9.46749 82.6481 9.89226 82.6142 10.32V12.88H81.8563V10.33C81.8833 10.0625 81.8075 9.79479 81.6441 9.58004C81.56 9.49704 81.4584 9.4334 81.3466 9.39365C81.2348 9.3539 81.1156 9.33901 80.9973 9.35004C80.7949 9.34623 80.5955 9.39816 80.4213 9.50004C80.2602 9.60954 80.1256 9.75297 80.0271 9.92004V12.92H79.2793V8.92004L79.9665 8.83004Z" fill="#000B68"/>
<path d="M83.5443 10.9298C83.5163 10.3709 83.6684 9.81759 83.9788 9.34981C84.1102 9.15825 84.2885 9.00275 84.497 8.89783C84.7055 8.7929 84.9375 8.74198 85.1713 8.74981C85.4073 8.74338 85.6408 8.79856 85.8484 8.90981C86.0492 9.01161 86.2198 9.16322 86.3436 9.34981L86.4346 8.82981H87.0308V12.8998C87.0452 13.1203 87.0121 13.3413 86.9337 13.5482C86.8553 13.755 86.7334 13.9431 86.576 14.0998C86.2009 14.3932 85.7295 14.5392 85.2522 14.5098C85.0373 14.5115 84.8232 14.4846 84.6155 14.4298C84.4028 14.3891 84.1981 14.3148 84.0092 14.2098L84.2012 13.6398C84.3512 13.7269 84.5153 13.7878 84.6863 13.8198C84.8675 13.8676 85.0545 13.8911 85.2421 13.8898C85.5295 13.9144 85.8154 13.8284 86.0404 13.6498C86.2156 13.4399 86.3025 13.1714 86.283 12.8998V12.4398C86.1568 12.604 85.9944 12.7374 85.808 12.8298C85.6036 12.9161 85.3835 12.9604 85.1612 12.9598C84.9348 12.9701 84.7093 12.9264 84.5035 12.8324C84.2978 12.7384 84.1178 12.5969 83.9788 12.4198C83.6714 12.0109 83.5178 11.5088 83.5443 10.9998V10.9298ZM84.2921 10.9998C84.27 11.3523 84.362 11.7026 84.5549 11.9998C84.6444 12.1219 84.7635 12.2198 84.9013 12.2844C85.039 12.3491 85.1909 12.3784 85.3431 12.3698C85.5426 12.3762 85.7395 12.324 85.9091 12.2198C86.0642 12.1055 86.1918 11.9586 86.283 11.7898V9.90981C86.1917 9.74347 86.0596 9.60249 85.899 9.49981C85.7323 9.3975 85.5392 9.34538 85.3431 9.34981C85.1821 9.3437 85.0225 9.38151 84.8817 9.45911C84.7409 9.5367 84.6243 9.6511 84.5448 9.78981C84.3577 10.1404 84.267 10.5336 84.282 10.9298L84.2921 10.9998Z" fill="#000B68"/>
<path d="M87.92 10.8099C87.8987 10.2751 88.0706 9.75041 88.4051 9.32986C88.571 9.13993 88.7779 8.98924 89.0105 8.88887C89.2431 8.7885 89.4955 8.741 89.7491 8.74986C90.0031 8.73804 90.2564 8.7842 90.4895 8.88477C90.7226 8.98535 90.9291 9.13764 91.0932 9.32986C91.4304 9.74946 91.6059 10.274 91.5884 10.8099V10.8999C91.6077 11.4359 91.432 11.9611 91.0932 12.3799C90.9272 12.5698 90.7203 12.7205 90.4877 12.8208C90.2551 12.9212 90.0027 12.9687 89.7491 12.9599C89.4968 12.9701 89.2455 12.9232 89.0143 12.8227C88.7831 12.7222 88.5782 12.5707 88.4152 12.3799C88.0731 11.9629 87.8969 11.4365 87.92 10.8999V10.8099ZM88.6577 10.8899C88.6377 11.2782 88.7325 11.664 88.9306 11.9999C89.0152 12.1349 89.1348 12.2451 89.2769 12.3189C89.4191 12.3928 89.5786 12.4276 89.739 12.4199C89.8996 12.4287 90.0595 12.3943 90.2019 12.3204C90.3442 12.2464 90.4637 12.1356 90.5475 11.9999C90.7487 11.6796 90.8473 11.3066 90.8304 10.9299V10.8499C90.8447 10.4766 90.7461 10.1075 90.5475 9.78986C90.4629 9.65481 90.3433 9.54464 90.2011 9.47079C90.059 9.39693 89.8994 9.36208 89.739 9.36986C89.5785 9.36101 89.4185 9.39539 89.2762 9.46935C89.1338 9.5433 89.0144 9.65407 88.9306 9.78986C88.7383 10.1102 88.6403 10.4773 88.6476 10.8499L88.6577 10.8899Z" fill="#000B68"/>
<path d="M93.1852 8.82986L93.2358 9.42986C93.3595 9.22073 93.5374 9.04811 93.7512 8.92986C93.9623 8.80721 94.2037 8.7449 94.4485 8.74986C94.6342 8.74172 94.8196 8.77123 94.9934 8.83658C95.1672 8.90192 95.3257 9.00172 95.4591 9.12986C95.719 9.4709 95.8447 9.89386 95.8128 10.3199V12.8799H95.075V10.3299C95.102 10.0624 95.0263 9.7946 94.8628 9.57986C94.7764 9.49718 94.673 9.43385 94.5597 9.39417C94.4463 9.35449 94.3257 9.33937 94.2059 9.34986C94.0065 9.34346 93.8095 9.39566 93.64 9.49986C93.474 9.60366 93.3382 9.7484 93.2459 9.91986V12.9199H92.498V8.91986L93.1852 8.82986Z" fill="#000B68"/>
<path d="M102.907 10.33H99.8047V9H102.907V10.33Z" fill="#000B68"/>
<path d="M108.758 11.5502H111.992V12.8802H107V5.43018H108.758V11.5502Z" fill="#000B68"/>
<path d="M115.206 13C114.842 13.0185 114.478 12.9603 114.138 12.8293C113.799 12.6983 113.491 12.4974 113.236 12.24C112.99 11.9825 112.798 11.6793 112.671 11.3481C112.545 11.0168 112.486 10.664 112.498 10.31V10.1C112.461 9.34053 112.705 8.59375 113.185 8C113.666 7.51056 114.32 7.22464 115.01 7.20226C115.7 7.17989 116.371 7.4228 116.884 7.88C117.335 8.38139 117.568 9.03938 117.531 9.71V10.61H114.337C114.364 10.8784 114.49 11.1275 114.691 11.31C114.905 11.4972 115.184 11.5942 115.469 11.58C115.737 11.5877 116.005 11.5642 116.267 11.51C116.523 11.4396 116.773 11.3493 117.015 11.24L117.429 12.3C117.138 12.4953 116.818 12.6438 116.48 12.74C116.072 12.8929 115.642 12.9807 115.206 13ZM117.025 6.31V6.42H115.651L114.943 5.78L114.246 6.42H112.902V6.29L114.438 5H115.449L117.025 6.31ZM115.085 8.59C114.975 8.58273 114.865 8.60379 114.766 8.65111C114.667 8.69844 114.582 8.77041 114.519 8.86C114.378 9.07127 114.297 9.31679 114.287 9.57H115.792V9.44C115.804 9.21104 115.744 8.98416 115.621 8.79C115.552 8.71558 115.467 8.65723 115.373 8.61918C115.278 8.58113 115.177 8.56433 115.075 8.57L115.085 8.59Z" fill="#000B68"/>
<path d="M119.845 7.34L119.916 8.12C120.087 7.85352 120.319 7.63079 120.593 7.47C120.867 7.31585 121.177 7.23647 121.492 7.24C121.733 7.229 121.972 7.27083 122.194 7.36247C122.416 7.45412 122.615 7.5933 122.776 7.77C123.124 8.25557 123.288 8.84663 123.241 9.44V12.88H121.492V9.44C121.517 9.19905 121.444 8.95831 121.29 8.77C121.211 8.69919 121.119 8.64496 121.018 8.61058C120.917 8.57621 120.81 8.5624 120.704 8.57C120.554 8.56776 120.406 8.5985 120.27 8.66C120.143 8.71236 120.032 8.79481 119.946 8.9V12.9H118.238V7.34H119.845Z" fill="#000B68"/>
<path d="M132.387 6.6599H131.781V12.8799H130.265L130.143 12.1999C129.989 12.4366 129.781 12.6351 129.537 12.7799C129.306 12.9183 129.039 12.9877 128.769 12.9799C128.459 12.9957 128.151 12.9355 127.87 12.8046C127.59 12.6738 127.347 12.4763 127.162 12.2299C126.758 11.6424 126.559 10.9399 126.596 10.2299V10.1199C126.563 9.38222 126.761 8.6524 127.162 8.0299C127.341 7.77479 127.582 7.56857 127.863 7.43044C128.144 7.29231 128.456 7.22677 128.769 7.2399C129.017 7.23665 129.261 7.29878 129.476 7.4199C129.696 7.54449 129.886 7.71514 130.032 7.9199V6.6599H128.84V5.6599H130.032V4.8999H131.781V5.6899H132.387V6.6599ZM128.345 10.2299C128.325 10.5899 128.391 10.9494 128.537 11.2799C128.598 11.4 128.695 11.4993 128.813 11.5652C128.932 11.631 129.068 11.6605 129.204 11.6499C129.371 11.6569 129.538 11.6226 129.689 11.5499C129.829 11.488 129.948 11.3873 130.032 11.2599V8.9999C129.95 8.86177 129.836 8.74516 129.699 8.6599C129.554 8.57947 129.39 8.53809 129.224 8.5399C129.08 8.53358 128.937 8.57153 128.816 8.64853C128.695 8.72553 128.601 8.8378 128.547 8.9699C128.394 9.32311 128.325 9.7062 128.345 10.0899V10.2299Z" fill="#000B68"/>
<path d="M132.689 10.0602C132.663 9.32927 132.915 8.61522 133.397 8.06021C133.653 7.78803 133.968 7.57586 134.317 7.43919C134.667 7.30252 135.043 7.24479 135.418 7.27022C135.786 7.26468 136.153 7.32568 136.499 7.45021C136.809 7.56431 137.092 7.74145 137.328 7.97021C137.5 7.81885 137.629 7.62585 137.702 7.41021C137.796 7.14371 137.841 6.86247 137.833 6.58021H139.006C139.018 7.032 138.913 7.4794 138.702 7.88021C138.51 8.23607 138.21 8.52298 137.843 8.70021C137.935 8.91302 138.006 9.13402 138.056 9.36021C138.105 9.6004 138.129 9.8451 138.126 10.0902V10.2002C138.153 10.9312 137.9 11.6452 137.419 12.2002C136.878 12.7015 136.164 12.9804 135.423 12.9804C134.682 12.9804 133.968 12.7015 133.427 12.2002C132.946 11.6452 132.693 10.9312 132.72 10.2002L132.689 10.0602ZM136.338 6.55021H134.913L133.457 5.22021H135.246L136.338 6.55021ZM134.407 10.1702C134.39 10.545 134.463 10.9186 134.62 11.2602C134.702 11.3798 134.813 11.4777 134.942 11.5454C135.072 11.613 135.216 11.6483 135.362 11.6483C135.509 11.6483 135.653 11.613 135.782 11.5454C135.912 11.4777 136.023 11.3798 136.105 11.2602C136.271 10.9211 136.347 10.5463 136.327 10.1702V10.0602C136.346 9.68748 136.269 9.31614 136.105 8.98021C136.028 8.85398 135.919 8.74962 135.789 8.67719C135.658 8.60477 135.512 8.56673 135.362 8.56673C135.213 8.56673 135.066 8.60477 134.936 8.67719C134.806 8.74962 134.697 8.85398 134.62 8.98021C134.464 9.31864 134.391 9.6887 134.407 10.0602V10.1702Z" fill="#000B68"/>
<path d="M140.955 6.0599H139.207V4.8999H140.955V6.0599ZM140.955 12.8799H139.207V7.3399H140.955V12.8799Z" fill="#000B68"/>
<path d="M145.695 7.85008V8.85008H146.463V9.39008H145.695V11.8501C145.687 11.9214 145.694 11.9936 145.715 12.0624C145.735 12.1312 145.77 12.195 145.817 12.2501C145.857 12.2911 145.906 12.3231 145.96 12.3438C146.014 12.3645 146.072 12.3735 146.13 12.3701H146.271H146.413L146.504 12.8701C146.433 12.926 146.35 12.9638 146.261 12.9801C146.156 13.0113 146.048 13.0281 145.938 13.0301C145.805 13.0376 145.672 13.0165 145.548 12.9681C145.424 12.9198 145.312 12.8454 145.22 12.7501C145.121 12.6332 145.045 12.4979 144.998 12.3521C144.951 12.2062 144.934 12.0526 144.948 11.9001V9.37008H144.301V8.83008H144.948V7.83008L145.695 7.85008Z" fill="#000B68"/>
<path d="M148.191 7.79H147.443V7H148.191V7.79ZM148.191 12.88H147.443V8.88H148.191V12.88Z" fill="#000B68"/>
<path d="M151.042 13.0002C150.786 13.0119 150.53 12.9668 150.294 12.8681C150.058 12.7695 149.847 12.6199 149.677 12.4302C149.33 12.0236 149.149 11.5024 149.172 10.9702V10.8102C149.16 10.5478 149.2 10.2856 149.29 10.0385C149.38 9.79141 149.519 9.56433 149.698 9.37021C149.845 9.1896 150.031 9.04381 150.243 8.94347C150.454 8.84313 150.686 8.79077 150.92 8.79021C151.154 8.77427 151.388 8.81099 151.605 8.8976C151.822 8.98421 152.017 9.11846 152.174 9.29021C152.472 9.66092 152.623 10.1269 152.598 10.6002V11.0002H149.95C149.936 11.3576 150.043 11.7095 150.253 12.0002C150.346 12.1244 150.469 12.2241 150.61 12.2903C150.751 12.3566 150.906 12.3875 151.062 12.3802C151.286 12.383 151.508 12.3457 151.719 12.2702C151.903 12.2041 152.071 12.1021 152.214 11.9702L152.507 12.4502C152.344 12.6106 152.147 12.7335 151.931 12.8102C151.651 12.9324 151.348 12.9971 151.042 13.0002ZM150.577 7.12021H151.173L152.264 8.12021H151.517L150.89 7.53021L150.253 8.12021H149.506L150.577 7.12021ZM150.91 9.33021C150.788 9.33338 150.668 9.36272 150.558 9.41623C150.448 9.46974 150.351 9.54615 150.274 9.64021C150.094 9.86484 149.982 10.1352 149.95 10.4202H151.84V10.3302C151.848 10.0663 151.762 9.80804 151.597 9.60021C151.512 9.50763 151.407 9.43526 151.29 9.3885C151.173 9.34175 151.047 9.32182 150.92 9.33021H150.91ZM152.598 6.47021H153.396L152.618 7.47021H152.062L152.598 6.47021Z" fill="#000B68"/>
<path d="M154.416 7.85008V8.85008H155.194V9.39008H154.416V11.8501C154.408 11.9214 154.414 11.9936 154.435 12.0624C154.456 12.1312 154.491 12.195 154.537 12.2501C154.578 12.2906 154.627 12.3222 154.681 12.3429C154.735 12.3636 154.793 12.3728 154.851 12.3701H155.002H155.134L155.235 12.8701C155.162 12.9223 155.08 12.9597 154.992 12.9801C154.887 13.0106 154.778 13.0274 154.669 13.0301C154.534 13.0371 154.4 13.0157 154.275 12.9675C154.149 12.9192 154.035 12.8451 153.941 12.7501C153.843 12.6324 153.769 12.4968 153.724 12.351C153.679 12.2051 153.664 12.0519 153.678 11.9001V9.37008H153.021V8.83008H153.678V7.83008L154.416 7.85008Z" fill="#000B68"/>
<path d="M159.278 11H158.793V12.88H158.045V7H158.793V10.38H159.268L160.389 8.79H161.279L159.884 10.63L161.481 12.84H160.602L159.278 11Z" fill="#000B68"/>
<path d="M162.826 7.79H162.078V7H162.826V7.79ZM162.826 12.88H162.078V8.88H162.826V12.88Z" fill="#000B68"/>
<path d="M165.664 12.9999C165.409 13.0101 165.154 12.9644 164.918 12.8658C164.682 12.7673 164.471 12.6184 164.3 12.4299C163.952 12.0233 163.772 11.5021 163.795 10.9699V10.8099C163.78 10.2814 163.967 9.76681 164.32 9.36986C164.469 9.18848 164.657 9.04228 164.871 8.94194C165.084 8.8416 165.317 8.78964 165.553 8.78986C165.787 8.77538 166.02 8.81277 166.237 8.89929C166.454 8.98581 166.649 9.11926 166.806 9.28986C167.105 9.66057 167.256 10.1266 167.231 10.5999V10.9999H164.573C164.55 11.3568 164.654 11.7103 164.866 11.9999C164.962 12.1204 165.085 12.2174 165.226 12.2833C165.366 12.3492 165.519 12.3822 165.675 12.3799C165.902 12.3825 166.128 12.3453 166.342 12.2699C166.525 12.2038 166.694 12.1018 166.837 11.9699L167.12 12.4499C166.958 12.6124 166.761 12.7356 166.544 12.8099C166.267 12.9316 165.968 12.9962 165.664 12.9999ZM166.675 7.99986V8.08986H166.059L165.503 7.53986L164.957 8.08986H164.351V7.99986L165.28 7.10986H165.735L166.675 7.99986ZM165.523 9.33986C165.4 9.34096 165.279 9.36939 165.169 9.42305C165.059 9.47672 164.962 9.55423 164.886 9.64986C164.699 9.87123 164.583 10.1428 164.553 10.4299H166.443V10.3399C166.449 10.0777 166.367 9.82088 166.21 9.60986C166.127 9.51923 166.026 9.44731 165.913 9.399C165.799 9.35068 165.677 9.3271 165.553 9.32986L165.523 9.33986ZM165.978 14.1499H165.149V13.3999H165.978V14.1499Z" fill="#000B68"/>
<path d="M168.768 8.82977L168.828 9.35977C168.959 9.1724 169.132 9.01819 169.334 8.90977C169.555 8.79736 169.802 8.74231 170.051 8.74977C170.298 8.7408 170.541 8.80713 170.749 8.93977C170.956 9.0719 171.113 9.2691 171.193 9.49977C171.314 9.27883 171.488 9.09014 171.699 8.94977C171.924 8.81506 172.183 8.74576 172.446 8.74977C172.637 8.73835 172.828 8.7713 173.003 8.84597C173.179 8.92064 173.334 9.03496 173.457 9.17977C173.719 9.55417 173.843 10.0057 173.811 10.4598V12.8798H173.073V10.4498C173.1 10.1509 173.026 9.8516 172.861 9.59977C172.784 9.51379 172.689 9.44647 172.582 9.40309C172.475 9.35971 172.36 9.34146 172.244 9.34977C172.127 9.34619 172.011 9.36755 171.902 9.41241C171.794 9.45726 171.697 9.52457 171.618 9.60977C171.461 9.80104 171.366 10.0344 171.345 10.2798V12.8798H170.597V10.4498C170.62 10.1544 170.545 9.8597 170.385 9.60977C170.309 9.52316 170.213 9.45477 170.107 9.40973C170 9.3647 169.884 9.3442 169.768 9.34977C169.573 9.34234 169.38 9.39097 169.213 9.48977C169.061 9.58228 168.941 9.7183 168.869 9.87977V12.8798H168.121V8.87977L168.768 8.82977Z" fill="#000B68"/>
<path d="M26.547 5.99987L23.97 3.57987C23.9004 3.51318 23.8126 3.46817 23.7174 3.45039C23.6222 3.43262 23.5238 3.44287 23.4344 3.47987C23.3448 3.51994 23.2686 3.58454 23.2149 3.66604C23.1612 3.74755 23.1322 3.84257 23.1313 3.93987V4.65987H19.8368C19.5687 4.65987 19.3117 4.76523 19.1222 4.95277C18.9326 5.1403 18.8262 5.39466 18.8262 5.65987V6.90987C18.8262 6.99474 18.8602 7.07614 18.9209 7.13615C18.9815 7.19616 19.0638 7.22987 19.1496 7.22987C19.2273 7.22987 19.3018 7.19932 19.3568 7.14493C19.4118 7.09055 19.4426 7.01679 19.4426 6.93987V5.65987C19.4426 5.56705 19.4799 5.47802 19.5462 5.41239C19.6126 5.34675 19.7025 5.30987 19.7963 5.30987H23.0605C23.2347 5.30987 23.4018 5.24139 23.525 5.11949C23.6482 4.99759 23.7174 4.83226 23.7174 4.65987V4.21987L26.0822 6.41987C26.102 6.44187 26.113 6.47036 26.113 6.49987C26.113 6.52939 26.102 6.55787 26.0822 6.57987L23.7174 8.78987V8.33987C23.7174 8.16748 23.6482 8.00215 23.525 7.88025C23.4018 7.75836 23.2347 7.68987 23.0605 7.68987H22.9493C23.0402 7.84131 23.089 8.01379 23.0908 8.18987V9.06987C23.0924 9.16575 23.1219 9.25915 23.1756 9.33894C23.2294 9.41872 23.3052 9.48153 23.394 9.51987C23.4605 9.53488 23.5296 9.53488 23.5961 9.51987C23.7216 9.51864 23.8415 9.4683 23.9296 9.37987L26.547 6.99987C26.6198 6.93166 26.6778 6.84948 26.7174 6.75835C26.757 6.66723 26.7774 6.56907 26.7774 6.46987C26.7774 6.37067 26.757 6.27252 26.7174 6.18139C26.6778 6.09027 26.6198 6.00809 26.547 5.93987V5.99987Z" fill="#000B68"/>
<path d="M21.6167 7.81012H18.3626V7.09012C18.3639 6.99364 18.3368 6.89888 18.2848 6.81725C18.2328 6.73563 18.1581 6.67064 18.0696 6.63012C18.0025 6.62069 17.9345 6.62069 17.8675 6.63012C17.7389 6.63089 17.6157 6.68109 17.5239 6.77012L14.957 9.16012C14.8842 9.22834 14.8262 9.31052 14.7866 9.40164C14.747 9.49277 14.7266 9.59092 14.7266 9.69012C14.7266 9.78932 14.747 9.88748 14.7866 9.97861C14.8262 10.0697 14.8842 10.1519 14.957 10.2201L17.5239 12.6101C17.5936 12.6767 17.6816 12.7215 17.7769 12.739C17.8722 12.7566 17.9706 12.746 18.0599 12.7088C18.1492 12.6715 18.2255 12.6092 18.2793 12.5294C18.3331 12.4496 18.3621 12.356 18.3626 12.2601V11.5301H21.6167C21.8847 11.5301 22.1418 11.4248 22.3313 11.2372C22.5208 11.0497 22.6273 10.7953 22.6273 10.5301V8.77012C22.6296 8.59347 22.5805 8.41989 22.4858 8.27012C22.3927 8.12642 22.2639 8.00869 22.1118 7.92817C21.9596 7.84765 21.7892 7.80701 21.6167 7.81012Z" fill="#000B68"/>
</g>
<defs>
<clipPath id="clip0_383_2">
<rect width="191" height="18" fill="white"/>
</clipPath>
</defs>
</svg>
