<svg width="191" height="19" viewBox="0 0 191 19" fill="none" xmlns="http://www.w3.org/2000/svg">
<g clip-path="url(#clip0_383_76)">
<path d="M191 0H0V19H191V0Z" fill="#E9EFFF"/>
<path d="M23.5767 11.7002C23.5807 11.5823 23.5576 11.4651 23.5093 11.3576C23.461 11.2501 23.3888 11.1552 23.2982 11.0802C23.0034 10.8627 22.6632 10.7157 22.3034 10.6502C21.8172 10.5522 21.3586 10.3473 20.9604 10.0502C20.8108 9.93065 20.6901 9.77855 20.6073 9.60534C20.5246 9.43212 20.4821 9.2423 20.4829 9.05016C20.4829 8.84693 20.5296 8.64643 20.6193 8.4643C20.7091 8.28218 20.8394 8.12334 21.0002 8.00016C21.3879 7.7033 21.8662 7.55128 22.3531 7.57016C22.8695 7.54278 23.3761 7.71853 23.7658 8.06016C23.9279 8.20153 24.0573 8.37681 24.1449 8.57373C24.2325 8.77066 24.2763 8.98446 24.2731 9.20016H23.5767C23.5819 9.05635 23.5562 8.91311 23.5012 8.78022C23.4463 8.64733 23.3635 8.52793 23.2584 8.43016C23.0108 8.21578 22.6892 8.10801 22.3631 8.13016C22.061 8.11308 21.7623 8.20139 21.5175 8.38016C21.4245 8.46022 21.3503 8.56008 21.3005 8.6725C21.2506 8.78492 21.2262 8.90709 21.229 9.03016C21.2279 9.14896 21.2565 9.26614 21.3121 9.37096C21.3677 9.47579 21.4486 9.56491 21.5474 9.63016C21.853 9.82342 22.1895 9.96213 22.5422 10.0402C23.0196 10.1448 23.4659 10.3606 23.8453 10.6702C23.9854 10.7961 24.0976 10.9502 24.1747 11.1224C24.2518 11.2947 24.2921 11.4813 24.293 11.6702C24.2972 11.8777 24.2504 12.083 24.1567 12.2679C24.063 12.4528 23.9253 12.6116 23.7558 12.7302C23.3445 13.0144 22.8517 13.1549 22.3531 13.1302C21.8418 13.1363 21.3412 12.9825 20.9207 12.6902C20.7254 12.5619 20.5668 12.3847 20.4604 12.176C20.354 11.9673 20.3035 11.7344 20.3138 11.5002H21.0102C21.0013 11.6557 21.0323 11.811 21.1002 11.9511C21.1682 12.0912 21.2708 12.2114 21.3982 12.3002C21.6767 12.4887 22.0077 12.5833 22.3432 12.5702C22.6546 12.5846 22.9631 12.5045 23.2286 12.3402C23.3353 12.2714 23.4232 12.1767 23.484 12.0649C23.5449 11.9531 23.5768 11.8276 23.5767 11.7002Z" fill="#000B68"/>
<path d="M27.7142 13.0702C27.7142 12.9502 27.7142 12.8402 27.7142 12.7502C27.7044 12.6571 27.7044 12.5633 27.7142 12.4702C27.5696 12.6681 27.3869 12.8347 27.177 12.9602C26.9178 13.1045 26.6222 13.1691 26.3269 13.146C26.0316 13.1229 25.7495 13.0131 25.5157 12.8302C25.4041 12.7118 25.3175 12.5719 25.2611 12.4189C25.2047 12.266 25.1796 12.1031 25.1874 11.9402C25.1765 11.7602 25.2142 11.5807 25.2965 11.4205C25.3788 11.2603 25.5026 11.1254 25.6549 11.0302C26.0146 10.8024 26.4337 10.6875 26.8586 10.7002H27.6545V10.3002C27.6605 10.195 27.644 10.0897 27.6063 9.99143C27.5686 9.89313 27.5104 9.80407 27.4356 9.7302C27.2656 9.5891 27.0489 9.51767 26.8288 9.5302C26.6214 9.52034 26.4172 9.58405 26.2518 9.7102C26.1846 9.75987 26.1299 9.82459 26.0919 9.89923C26.0539 9.97386 26.0337 10.0564 26.033 10.1402H25.3366C25.3373 9.98155 25.3756 9.82535 25.4483 9.6845C25.5209 9.54366 25.6259 9.42221 25.7544 9.3302C26.0735 9.0952 26.4637 8.97859 26.8586 9.0002C27.2569 8.97723 27.6497 9.10175 27.9629 9.3502C28.1033 9.47417 28.2139 9.6286 28.2863 9.80184C28.3587 9.97508 28.3909 10.1626 28.3807 10.3502V12.3502C28.3807 12.4902 28.3807 12.6302 28.3807 12.7702C28.3976 12.902 28.4242 13.0323 28.4603 13.1602L27.7142 13.0702ZM26.5005 12.5302C26.7549 12.5343 27.0045 12.4611 27.2168 12.3202C27.4084 12.22 27.557 12.0529 27.6346 11.8502V11.2002H26.8586C26.6047 11.1872 26.3545 11.2652 26.1523 11.4202C26.06 11.4851 25.9853 11.5721 25.9349 11.6734C25.8845 11.7747 25.8601 11.887 25.8638 12.0002C25.8601 12.0783 25.8733 12.1564 25.9025 12.2289C25.9317 12.3014 25.9762 12.3667 26.033 12.4202C26.1702 12.5131 26.3365 12.5522 26.5005 12.5302ZM26.5005 8.3602V7.7902C26.6371 7.78968 26.7722 7.76251 26.8984 7.7102C26.9366 7.6936 26.9687 7.66538 26.9901 7.6295C27.0115 7.59362 27.0212 7.5519 27.0178 7.5102C27.0174 7.46259 27.0017 7.41639 26.973 7.37853C26.9443 7.34066 26.9042 7.31318 26.8586 7.3002C26.7193 7.24596 26.5701 7.22209 26.4209 7.2302V6.8202C26.7146 6.80626 27.0067 6.87188 27.2665 7.0102C27.3554 7.06414 27.4288 7.14049 27.4794 7.23169C27.53 7.32289 27.5561 7.42578 27.555 7.5302C27.5605 7.60465 27.5491 7.6794 27.5215 7.74872C27.4939 7.81805 27.4509 7.88012 27.3958 7.9302C27.2801 8.02057 27.143 8.07915 26.9979 8.1002V8.3602H26.5005Z" fill="#000B68"/>
<path d="M30.093 9.00009V9.61009C30.2173 9.40297 30.3919 9.23094 30.6004 9.11009C30.87 8.96382 31.178 8.90455 31.4823 8.94033C31.7866 8.97611 32.0726 9.10522 32.3015 9.31009C32.5669 9.64661 32.695 10.0721 32.6596 10.5001V13.0501H31.9234V10.5301C31.9496 10.2595 31.8752 9.98877 31.7145 9.77009C31.6279 9.69026 31.5256 9.62946 31.4143 9.59158C31.303 9.5537 31.185 9.53957 31.0679 9.55009C30.8716 9.5437 30.6777 9.59589 30.5108 9.70009C30.3456 9.80162 30.2114 9.94693 30.1229 10.1201V13.1201H29.3867V9.00009H30.093Z" fill="#000B68"/>
<path d="M39.106 11.2C39.1327 11.7044 38.9851 12.2025 38.6882 12.61C38.553 12.7864 38.3776 12.9275 38.1767 13.0214C37.9759 13.1154 37.7556 13.1595 37.5343 13.15C37.3096 13.1545 37.0864 13.1137 36.8777 13.03C36.6901 12.9444 36.5262 12.8139 36.4002 12.65V14.65H35.6641V9.00002H36.2311L36.3405 9.53002C36.4656 9.33994 36.6368 9.18506 36.8379 9.08002C37.0518 8.97655 37.287 8.92516 37.5243 8.93002C37.7531 8.92201 37.9801 8.97293 38.1839 9.07795C38.3876 9.18296 38.5612 9.33857 38.6882 9.53002C38.9876 9.99644 39.1338 10.5456 39.106 11.1V11.2ZM38.3699 11.12C38.3834 10.7291 38.2905 10.3418 38.1013 10C38.0222 9.85975 37.9059 9.74434 37.7654 9.66664C37.6249 9.58895 37.4657 9.55203 37.3055 9.56002C37.1135 9.55259 36.9234 9.60121 36.7583 9.70002C36.6096 9.79929 36.4868 9.93305 36.4002 10.09V12.09C36.4825 12.2501 36.6062 12.3848 36.7583 12.48C36.9249 12.5753 37.1139 12.6237 37.3055 12.62C37.4591 12.6282 37.6123 12.5977 37.7513 12.5314C37.8902 12.465 38.0105 12.3649 38.1013 12.24C38.2921 11.9429 38.386 11.5933 38.3699 11.24V11.12Z" fill="#000B68"/>
<path d="M40.7871 9.55998C40.9215 9.37452 41.0947 9.22091 41.2945 9.10998C41.5032 9.00086 41.7357 8.94586 41.9709 8.94998C42.1547 8.94069 42.3384 8.97064 42.5099 9.03786C42.6813 9.10508 42.8367 9.20805 42.9657 9.33998C43.2309 9.6805 43.3588 10.1089 43.3238 10.54V13.07H42.5877V10.53C42.6098 10.266 42.5356 10.0029 42.3788 9.78998C42.2942 9.70605 42.1927 9.64122 42.0812 9.59984C41.9697 9.55845 41.8507 9.54145 41.7322 9.54998C41.5402 9.54255 41.3501 9.59118 41.185 9.68998C41.0216 9.78749 40.8822 9.9208 40.7772 10.08V13.08H40.041V7.22998H40.7871V9.55998Z" fill="#000B68"/>
<path d="M46.8151 13.0702C46.7883 12.965 46.7684 12.8581 46.7555 12.7502C46.7505 12.6569 46.7505 12.5635 46.7555 12.4702C46.6078 12.6652 46.4257 12.8313 46.2183 12.9602C46.0042 13.0865 45.7602 13.1522 45.512 13.1502C45.3333 13.1663 45.1532 13.1464 44.9824 13.0914C44.8115 13.0364 44.6533 12.9476 44.5172 12.8302C44.4056 12.7117 44.319 12.5719 44.2626 12.4189C44.2062 12.266 44.1811 12.1031 44.1889 11.9402C44.1799 11.7552 44.2192 11.5711 44.303 11.4062C44.3868 11.2413 44.5121 11.1013 44.6664 11.0002C45.0469 10.761 45.4916 10.6457 45.9397 10.6702H46.7555V10.2702C46.759 10.1653 46.7415 10.0607 46.7039 9.96276C46.6662 9.86481 46.6094 9.77551 46.5366 9.70019C46.3653 9.57272 46.1578 9.50392 45.9447 9.50392C45.7316 9.50392 45.5241 9.57272 45.3528 9.70019C45.2843 9.74936 45.2281 9.81373 45.1884 9.88831C45.1487 9.96289 45.1267 10.0457 45.124 10.1302H44.4276C44.4284 9.97154 44.4666 9.81535 44.5393 9.6745C44.6119 9.53366 44.7169 9.41221 44.8455 9.32019C45.1662 9.0895 45.556 8.97653 45.9497 9.0002C46.345 8.97592 46.7352 9.10072 47.0439 9.3502C47.1844 9.47417 47.295 9.6286 47.3674 9.80184C47.4398 9.97508 47.472 10.1626 47.4618 10.3502V12.3502C47.452 12.49 47.452 12.6304 47.4618 12.7702C47.4739 12.9028 47.5005 13.0336 47.5413 13.1602L46.8151 13.0702ZM47.2131 8.41019H46.5863L45.8502 7.71019L45.124 8.41019H44.4873L45.4821 7.41019H46.2183L47.2131 8.41019ZM45.5915 12.5302C45.8489 12.5332 46.1014 12.4602 46.3177 12.3202C46.5038 12.2129 46.6503 12.048 46.7356 11.8502V11.2002H45.9099C45.6551 11.1796 45.4021 11.2584 45.2036 11.4202C45.1218 11.4823 45.0551 11.5623 45.0086 11.6541C44.962 11.7459 44.9369 11.8472 44.935 11.9502C44.9291 12.0286 44.9413 12.1073 44.9706 12.1801C44.9999 12.253 45.0456 12.318 45.1041 12.3702C45.1705 12.4284 45.2479 12.4725 45.3316 12.5C45.4154 12.5275 45.5038 12.5378 45.5915 12.5302ZM47.1235 7.91019V7.42019C47.2432 7.4222 47.362 7.39833 47.4717 7.3502C47.5038 7.33577 47.5306 7.31165 47.5485 7.28118C47.5663 7.25071 47.5742 7.21541 47.5712 7.1802C47.5705 7.13908 47.5565 7.09931 47.5314 7.06686C47.5063 7.0344 47.4714 7.01101 47.4319 7.00019C47.3146 6.95502 47.1893 6.93459 47.0638 6.94019V6.58019C47.3203 6.56601 47.5754 6.62494 47.8 6.75019C47.8773 6.79384 47.9414 6.85789 47.9852 6.93542C48.029 7.01296 48.051 7.10105 48.0487 7.19019C48.0542 7.25541 48.0445 7.32102 48.0203 7.38178C47.9961 7.44255 47.9581 7.4968 47.9094 7.54019C47.8105 7.6235 47.6894 7.67567 47.5612 7.69019V7.91019H47.1235Z" fill="#000B68"/>
<path d="M49.1816 8.99987L49.2413 9.52987C49.3669 9.34288 49.5382 9.19139 49.7387 9.08987C49.9569 8.97746 50.1999 8.92242 50.445 8.92987C50.6878 8.9209 50.9274 8.98724 51.1314 9.11987C51.3355 9.25201 51.4897 9.44921 51.5691 9.67987C51.6887 9.45916 51.8593 9.27054 52.0665 9.12987C52.2863 8.99034 52.5428 8.92065 52.8026 8.92987C52.9894 8.91879 53.1761 8.95089 53.3486 9.0237C53.521 9.09651 53.6746 9.20809 53.7974 9.34987C54.0631 9.72081 54.1899 10.1741 54.1555 10.6299V13.0499H53.4194V10.6399C53.4481 10.344 53.3743 10.0473 53.2105 9.79987C53.1355 9.71389 53.0416 9.64657 52.9363 9.60319C52.831 9.55981 52.7172 9.54156 52.6037 9.54987C52.4895 9.54355 52.3753 9.56371 52.2701 9.6088C52.1649 9.65388 52.0714 9.72268 51.9969 9.80987C51.8339 9.99285 51.736 10.225 51.7183 10.4699V13.0699H50.9822V10.6399C51.0054 10.3476 50.932 10.0558 50.7733 9.80987C50.6982 9.72326 50.6046 9.65487 50.4995 9.60984C50.3944 9.5648 50.2806 9.5443 50.1664 9.54987C49.9724 9.54079 49.7796 9.58578 49.6093 9.67987C49.4682 9.77911 49.3551 9.91349 49.2811 10.0699V13.0699H48.5449V8.99987H49.1816Z" fill="#000B68"/>
<path d="M62.9105 10.4598C62.9202 10.8275 62.8576 11.1934 62.7261 11.5367C62.5947 11.8799 62.397 12.1936 62.1445 12.4598C61.565 12.9561 60.8148 13.2039 60.0554 13.1498C59.6446 13.1669 59.2346 13.1004 58.85 12.9543C58.4654 12.8082 58.1141 12.5856 57.8171 12.2998C57.5338 12.0104 57.312 11.6662 57.1649 11.288C57.0178 10.9098 56.9487 10.5056 56.9616 10.0998V8.56979C56.9448 8.16609 57.0092 7.76313 57.1511 7.38508C57.293 7.00704 57.5094 6.6617 57.7873 6.36979C58.0664 6.085 58.4019 5.86221 58.772 5.7158C59.1421 5.56939 59.5387 5.50262 59.936 5.51979C60.7172 5.46388 61.489 5.71888 62.0848 6.22979C62.6068 6.76501 62.9057 7.48042 62.9204 8.22979H61.2492C61.2573 7.84528 61.146 7.46777 60.9308 7.14979C60.801 7.0212 60.6445 6.92313 60.4725 6.86261C60.3005 6.80209 60.1173 6.78064 59.936 6.79979C59.7564 6.7941 59.5783 6.83422 59.4183 6.9164C59.2582 6.99858 59.1215 7.12016 59.0208 7.26979C58.7731 7.65171 58.6576 8.10518 58.6925 8.55979V10.1298C58.6729 10.5761 58.8025 11.0161 59.0606 11.3798C59.1774 11.5319 59.3285 11.6539 59.5015 11.7356C59.6745 11.8173 59.8644 11.8565 60.0554 11.8498C60.2167 11.8661 60.3797 11.8449 60.5315 11.7876C60.6833 11.7304 60.82 11.6388 60.9308 11.5198C61.1375 11.2062 61.2418 10.8357 61.2293 10.4598H62.9105Z" fill="#000B68"/>
<path d="M65.4169 8.2298C65.5723 7.98966 65.7797 7.78797 66.0237 7.6398C66.3736 7.45775 66.774 7.39824 67.1614 7.47069C67.5488 7.54314 67.9011 7.74342 68.1625 8.0398C68.525 8.58452 68.6933 9.23662 68.64 9.8898V13.0698H66.9289V9.8798C66.9596 9.57697 66.8934 9.27219 66.7399 9.0098C66.667 8.92723 66.5761 8.86263 66.4743 8.82101C66.3725 8.7794 66.2626 8.76188 66.153 8.7698C66.0072 8.7645 65.8618 8.7883 65.7252 8.8398C65.6068 8.88323 65.5009 8.95536 65.4169 9.0498V13.0498H63.666V5.0498H65.387L65.4169 8.2298Z" fill="#000B68"/>
<path d="M70.7596 5.47998H72.5303L71.0978 6.80998H69.7051L70.7596 5.47998ZM71.4659 13.07H69.7449V7.53998H71.4659V13.07Z" fill="#000B68"/>
<path d="M74.1623 7.54017L74.222 8.32017C74.3901 8.05369 74.6185 7.83095 74.8885 7.67017C75.1572 7.51371 75.4634 7.43416 75.7739 7.44017C76.0112 7.42642 76.2486 7.46595 76.4689 7.55589C76.6891 7.64583 76.8867 7.78393 77.0472 7.96017C77.3869 8.45049 77.5453 9.04481 77.4949 9.64017V13.0702H75.7739V9.64017C75.7915 9.41372 75.7318 9.188 75.6048 9.00017C75.445 8.86268 75.2376 8.79437 75.0278 8.81017C74.8814 8.80883 74.7362 8.836 74.6 8.89017C74.48 8.94955 74.372 9.03094 74.2817 9.13017V13.1302H72.5508V7.54017H74.1623Z" fill="#000B68"/>
<path d="M80.0999 8.2298C80.2553 7.98966 80.4628 7.78797 80.7067 7.6398C81.0567 7.45775 81.457 7.39824 81.8444 7.47069C82.2318 7.54314 82.5841 7.74342 82.8455 8.0398C83.216 8.58121 83.3883 9.23502 83.333 9.8898V13.0698H81.5722V9.8798C81.6029 9.57697 81.5367 9.27219 81.3832 9.0098C81.3107 8.92662 81.2199 8.8616 81.118 8.81993C81.0161 8.77826 80.9059 8.7611 80.7963 8.7698C80.6505 8.76528 80.5053 8.78905 80.3685 8.8398C80.2514 8.88589 80.1461 8.95763 80.0601 9.0498V13.0498H78.3789V5.0498H80.0999V8.2298Z" fill="#000B68"/>
<path d="M88.537 8.2298C88.6925 7.98966 88.8999 7.78797 89.1439 7.6398C89.4938 7.45775 89.8942 7.39824 90.2816 7.47069C90.669 7.54314 91.0212 7.74342 91.2827 8.0398C91.6487 8.58326 91.8206 9.23546 91.7701 9.8898V13.0698H90.069V9.8798C90.0944 9.5773 90.0286 9.27411 89.88 9.0098C89.807 8.92723 89.7161 8.86263 89.6144 8.82101C89.5126 8.7794 89.4027 8.76188 89.2931 8.7698C89.1473 8.7645 89.0019 8.7883 88.8653 8.8398C88.7469 8.88323 88.641 8.95536 88.5569 9.0498V13.0498H86.8359V5.0498H88.537V8.2298Z" fill="#000B68"/>
<path d="M95.9084 13.0699C95.8576 12.9735 95.8143 12.8732 95.7791 12.7699C95.74 12.6584 95.7068 12.545 95.6796 12.4299C95.5247 12.6528 95.3247 12.8402 95.0927 12.9799C94.8322 13.1174 94.5413 13.1862 94.2471 13.1799C93.7812 13.1985 93.3257 13.0375 92.9738 12.7299C92.8102 12.5737 92.682 12.3838 92.5978 12.1733C92.5137 11.9628 92.4757 11.7366 92.4864 11.5099C92.4736 11.2641 92.5225 11.019 92.6285 10.7971C92.7346 10.5752 92.8943 10.3836 93.0932 10.2399C93.6566 9.90321 94.3098 9.74954 94.9634 9.79994H95.5901V9.39994C95.603 9.205 95.5426 9.0123 95.421 8.85994C95.3559 8.79216 95.2766 8.73991 95.1888 8.70703C95.101 8.67415 95.007 8.66147 94.9136 8.66994C94.7523 8.65867 94.5925 8.70863 94.466 8.80994C94.364 8.9326 94.314 9.0906 94.3267 9.24994H92.6654C92.6508 9.00312 92.701 8.75678 92.811 8.53563C92.921 8.31447 93.0869 8.12629 93.2921 7.98994C93.7989 7.6281 94.4122 7.44843 95.033 7.47994C95.6259 7.45049 96.2102 7.63096 96.6844 7.98994C96.8979 8.16524 97.067 8.38901 97.1777 8.64284C97.2884 8.89667 97.3375 9.17329 97.321 9.44994V11.4999C97.3204 11.7753 97.3471 12.0499 97.4006 12.3199C97.4459 12.5773 97.5193 12.8288 97.6195 13.0699H95.9084ZM96.9629 5.19994C96.9705 5.50746 96.8642 5.80685 96.6645 6.03994C96.57 6.151 96.4524 6.23989 96.3201 6.30036C96.1878 6.36083 96.0438 6.39141 95.8985 6.38994C95.6087 6.37763 95.3244 6.30618 95.0629 6.17994C94.83 6.06032 94.577 5.9857 94.3168 5.95994C94.2596 5.96145 94.2039 5.97793 94.155 6.00775C94.1062 6.03756 94.0659 6.07968 94.0382 6.12994C93.9557 6.24645 93.9138 6.38704 93.9189 6.52994L93.0136 6.26994C93.0124 5.96175 93.1219 5.66349 93.322 5.42994C93.4154 5.32018 93.5313 5.23205 93.6618 5.17163C93.7923 5.11121 93.9343 5.07993 94.078 5.07994C94.3568 5.10197 94.6295 5.17305 94.8838 5.28994C95.1283 5.40482 95.3909 5.47589 95.6597 5.49994C95.7159 5.49945 95.771 5.48449 95.8198 5.45647C95.8685 5.42846 95.9093 5.38834 95.9383 5.33994C96.0208 5.22344 96.0627 5.08284 96.0576 4.93994L96.9629 5.19994ZM94.7744 11.9999C94.9353 11.9986 95.0944 11.9646 95.2419 11.8999C95.3756 11.8355 95.4942 11.7435 95.5901 11.6299V10.7699H94.9733C94.8678 10.7596 94.7612 10.7711 94.6603 10.8038C94.5593 10.8365 94.4661 10.8896 94.3864 10.9599C94.2594 11.0985 94.1916 11.2816 94.1974 11.4699C94.1927 11.5414 94.2046 11.6129 94.2323 11.6789C94.2599 11.7448 94.3024 11.8034 94.3566 11.8499C94.4715 11.952 94.6211 12.0058 94.7744 11.9999Z" fill="#000B68"/>
<path d="M99.8479 7.53988L99.9175 8.31988C100.082 8.05061 100.311 7.82712 100.584 7.66988C100.852 7.51246 101.159 7.43285 101.469 7.43988C101.705 7.42693 101.941 7.46687 102.159 7.55681C102.378 7.64675 102.574 7.78443 102.733 7.95988C103.081 8.44663 103.243 9.04285 103.19 9.63989V13.0699H101.469V9.63989C101.488 9.3964 101.417 9.15453 101.27 8.95988C101.192 8.89085 101.1 8.83845 101.001 8.8058C100.902 8.77315 100.797 8.76094 100.693 8.76989C100.547 8.76952 100.402 8.79666 100.266 8.84989C100.147 8.90668 100.042 8.98854 99.9573 9.08988V13.0899H98.2363V7.53988H99.8479Z" fill="#000B68"/>
<path d="M103.896 10.3201C103.862 9.5823 104.057 8.85209 104.453 8.23012C104.629 7.97501 104.867 7.76879 105.143 7.63066C105.42 7.49254 105.727 7.42699 106.035 7.44012C106.307 7.43595 106.575 7.50501 106.811 7.64013C107.041 7.79294 107.234 7.9943 107.378 8.23012L107.497 7.54013H109V12.8601C109.013 13.1947 108.953 13.5281 108.822 13.836C108.691 14.144 108.493 14.4187 108.244 14.6401C107.683 15.0982 106.976 15.3362 106.254 15.3101C105.952 15.3083 105.651 15.2679 105.359 15.1901C105.05 15.1167 104.749 15.0094 104.463 14.8701L104.742 13.5901C104.973 13.6939 105.213 13.7776 105.458 13.8401C105.717 13.8951 105.98 13.9219 106.244 13.9201C106.391 13.9287 106.538 13.9074 106.676 13.8576C106.815 13.8078 106.942 13.7304 107.05 13.6301C107.146 13.5259 107.221 13.403 107.269 13.2689C107.317 13.1348 107.337 12.9923 107.328 12.8501V12.5701C107.183 12.7604 106.996 12.9144 106.781 13.0201C106.563 13.1325 106.32 13.1876 106.075 13.1801C105.771 13.1949 105.468 13.1331 105.193 13.0004C104.919 12.8677 104.682 12.6683 104.503 12.4201C104.108 11.8314 103.912 11.1298 103.946 10.4201L103.896 10.3201ZM105.607 10.4201C105.591 10.7842 105.659 11.1471 105.806 11.4801C105.867 11.6002 105.962 11.6995 106.079 11.7654C106.196 11.8313 106.329 11.8608 106.463 11.8501C106.63 11.8541 106.796 11.8235 106.95 11.7601C107.082 11.7067 107.196 11.6165 107.279 11.5001V9.18013C107.197 9.05036 107.084 8.94365 106.95 8.87013C106.802 8.79748 106.638 8.76311 106.473 8.77013C106.334 8.76367 106.196 8.80054 106.078 8.87571C105.961 8.95088 105.869 9.06069 105.816 9.19012C105.662 9.54601 105.591 9.93241 105.607 10.3201V10.4201Z" fill="#000B68"/>
<path d="M115.923 10.5302H112.859V9.2002H115.923V10.5302Z" fill="#000B68"/>
<path d="M122.668 8.13988L123.892 5.62988H125.882L123.763 9.31988L126.051 13.0699H123.962L122.698 10.5099L121.435 13.0699H119.445L121.614 9.31988L119.495 5.62988H121.485L122.668 8.13988Z" fill="#000B68"/>
<path d="M129.702 12.42C129.536 12.6577 129.313 12.8502 129.055 12.98C128.788 13.1187 128.49 13.1875 128.189 13.18C127.939 13.1935 127.689 13.1512 127.457 13.0561C127.225 12.961 127.016 12.8155 126.846 12.63C126.485 12.1335 126.312 11.5235 126.359 10.91V7.54004H128.08V10.92C128.059 11.1657 128.118 11.4115 128.249 11.62C128.31 11.6957 128.387 11.7559 128.476 11.7958C128.564 11.8358 128.66 11.8544 128.756 11.85C128.919 11.8512 129.081 11.8241 129.234 11.77C129.371 11.7249 129.494 11.6458 129.592 11.54V7.54004H131.313V13.07H129.811L129.702 12.42Z" fill="#000B68"/>
<path d="M135.422 13.07C135.371 12.9735 135.328 12.8732 135.293 12.77C135.253 12.6585 135.22 12.545 135.193 12.43C135.038 12.6528 134.838 12.8402 134.606 12.98C134.346 13.1195 134.055 13.1884 133.761 13.18C133.295 13.1985 132.839 13.0375 132.487 12.73C132.324 12.5737 132.195 12.3839 132.111 12.1733C132.027 11.9628 131.989 11.7366 132 11.51C131.989 11.2634 132.04 11.018 132.148 10.7962C132.255 10.5744 132.417 10.3832 132.617 10.24C133.176 9.9034 133.826 9.74968 134.477 9.79996H135.104V9.39996C135.116 9.20502 135.056 9.01232 134.934 8.85996C134.8 8.75372 134.633 8.69599 134.462 8.69599C134.291 8.69599 134.124 8.75372 133.989 8.85996C133.935 8.91865 133.894 8.98816 133.868 9.06397C133.842 9.13979 133.833 9.2202 133.84 9.29996H132.179C132.164 9.05314 132.214 8.8068 132.324 8.58564C132.434 8.36449 132.6 8.1763 132.806 8.03996C133.316 7.67808 133.932 7.49853 134.556 7.52996C135.149 7.50386 135.732 7.684 136.208 8.03996C136.418 8.21732 136.585 8.44172 136.693 8.69523C136.802 8.94874 136.851 9.22433 136.834 9.49996V11.5C136.834 11.7753 136.861 12.05 136.914 12.32C136.964 12.5762 137.037 12.8272 137.133 13.07H135.422ZM133.83 5.36996H135.293L136.825 6.64996H135.293L134.546 5.94996L133.82 6.64996H132.308L133.83 5.36996ZM134.298 12C134.459 11.9987 134.618 11.9646 134.765 11.9C134.9 11.8372 135.019 11.7449 135.113 11.63V10.77H134.507C134.4 10.7588 134.291 10.7699 134.189 10.8026C134.086 10.8353 133.991 10.8889 133.91 10.96C133.786 11.1007 133.719 11.2823 133.721 11.47C133.718 11.5421 133.732 11.6139 133.761 11.6798C133.791 11.7457 133.835 11.8039 133.89 11.85C133.944 11.9011 134.009 11.9408 134.079 11.9666C134.149 11.9923 134.223 12.0037 134.298 12ZM137.063 4.45996H138.575L137.471 5.85996H136.287L137.063 4.45996Z" fill="#000B68"/>
<path d="M139.817 6.16016V7.54016H140.752V8.73016H139.817V11.2702C139.803 11.4233 139.846 11.5763 139.936 11.7002C139.978 11.7446 140.03 11.7792 140.086 11.8017C140.143 11.8242 140.204 11.8339 140.265 11.8302H140.513H140.762L140.881 13.1102L140.364 13.2002C140.185 13.2119 140.006 13.2119 139.827 13.2002C139.594 13.2178 139.36 13.187 139.139 13.1096C138.918 13.0322 138.715 12.9098 138.544 12.7502C138.214 12.3432 138.057 11.8225 138.106 11.3002V8.73016H137.33V7.54016H138.106V6.16016H139.817Z" fill="#000B68"/>
<path d="M146.911 11.0499V11.3199L146.96 11.0699L148.433 5.62988H150.233L147.826 13.0699H145.976L143.578 5.62988H145.379L146.911 11.0499Z" fill="#000B68"/>
<path d="M154.441 11.6299H152.104L151.696 13.0699H149.965L152.352 5.62988H154.193L156.59 13.0699H154.859L154.441 11.6299ZM152.452 10.2999H154.024L153.248 7.62988L152.452 10.2999Z" fill="#000B68"/>
<path d="M161.832 6.99988H159.842V13.1099H158.171V6.99988H156.182V5.62988H161.792L161.832 6.99988Z" fill="#000B68"/>
<path d="M169.054 8.46996H168.318V13.07H167.721L167.631 12.57C167.501 12.754 167.327 12.9019 167.124 13C166.915 13.0944 166.687 13.1422 166.458 13.14C166.236 13.1503 166.016 13.1066 165.815 13.0125C165.614 12.9185 165.438 12.7769 165.304 12.6C165.007 12.1925 164.859 11.6943 164.886 11.19V11.11C164.862 10.5573 165.004 10.0101 165.294 9.53996C165.421 9.34852 165.594 9.1929 165.798 9.08789C166.002 8.98288 166.229 8.93196 166.458 8.93996C166.677 8.93476 166.894 8.97919 167.094 9.06996C167.274 9.15894 167.431 9.28909 167.552 9.44996V8.44996H166.637V7.85996H167.552V7.20996H168.288V7.85996H169.024L169.054 8.46996ZM165.642 11.2C165.621 11.5524 165.711 11.9025 165.901 12.2C165.984 12.3241 166.099 12.4237 166.234 12.4887C166.368 12.5537 166.518 12.5817 166.667 12.57C166.863 12.5764 167.057 12.5242 167.224 12.42C167.378 12.3143 167.501 12.1694 167.582 12V10.09C167.495 9.93025 167.373 9.79323 167.224 9.68996C167.057 9.59464 166.868 9.54627 166.677 9.54996C166.52 9.54131 166.364 9.57704 166.227 9.65307C166.09 9.7291 165.977 9.84237 165.901 9.97996C165.718 10.3311 165.629 10.7239 165.642 11.12V11.2Z" fill="#000B68"/>
<path d="M169.95 7.7002H169.403L168.646 6.7002H169.432L169.95 7.7002ZM172.009 13.0702C171.982 12.965 171.962 12.8581 171.949 12.7502C171.944 12.6569 171.944 12.5635 171.949 12.4702C171.808 12.6678 171.629 12.8345 171.422 12.9602C171.205 13.0878 170.957 13.1535 170.706 13.1502C170.527 13.1669 170.347 13.1472 170.176 13.0922C170.005 13.0372 169.847 12.9481 169.711 12.8302C169.599 12.7118 169.513 12.5719 169.456 12.4189C169.4 12.266 169.375 12.1031 169.383 11.9402C169.372 11.7602 169.409 11.5807 169.492 11.4205C169.574 11.2603 169.698 11.1254 169.85 11.0302C170.225 10.7938 170.662 10.6786 171.104 10.7002H171.899V10.3002C171.905 10.1959 171.889 10.0916 171.853 9.99361C171.817 9.89562 171.762 9.806 171.691 9.7302C171.517 9.5893 171.297 9.51807 171.074 9.5302C170.866 9.52034 170.662 9.58405 170.497 9.7102C170.431 9.76139 170.378 9.82644 170.34 9.90074C170.302 9.97504 170.281 10.0568 170.278 10.1402H169.582C169.582 9.98155 169.621 9.82535 169.693 9.6845C169.766 9.54366 169.871 9.42221 169.999 9.3302C170.318 9.0952 170.709 8.97859 171.104 9.0002C171.502 8.97723 171.895 9.10175 172.208 9.3502C172.348 9.47417 172.459 9.6286 172.531 9.80184C172.604 9.97508 172.636 10.1626 172.626 10.3502V12.3502C172.626 12.4902 172.626 12.6302 172.626 12.7702C172.646 12.9022 172.676 13.0326 172.715 13.1602L172.009 13.0702ZM172.437 8.3402H171.691L171.074 7.7602L170.447 8.3402H169.711L170.785 7.3402H171.372L172.437 8.3402ZM170.785 12.5302C171.04 12.5343 171.289 12.4611 171.502 12.3202C171.693 12.22 171.842 12.0529 171.919 11.8502V11.2002H171.104C170.846 11.1857 170.593 11.2637 170.387 11.4202C170.296 11.4856 170.223 11.573 170.174 11.6743C170.126 11.7757 170.103 11.8878 170.109 12.0002C170.104 12.0776 170.115 12.1552 170.143 12.2276C170.17 12.3001 170.213 12.3658 170.268 12.4202C170.419 12.5238 170.605 12.5633 170.785 12.5302Z" fill="#000B68"/>
<path d="M174.895 11.57L175.034 12.08L176.079 9H176.894L175.203 13.67C175.107 13.9371 174.958 14.1819 174.766 14.39C174.667 14.492 174.547 14.5715 174.415 14.6233C174.283 14.675 174.141 14.6978 174 14.69H173.771H173.562L173.632 14.11H173.96C174.037 14.1106 174.113 14.0917 174.181 14.055C174.248 14.0183 174.306 13.965 174.348 13.9C174.448 13.7534 174.532 13.5957 174.597 13.43L174.766 13.01L173.273 9.01H174.089L174.895 11.57Z" fill="#000B68"/>
<path d="M183.37 8.47021H182.634V13.0702H182.047L181.967 12.5702C181.84 12.7523 181.673 12.9028 181.48 13.0102C181.27 13.1056 181.043 13.1534 180.813 13.1502C180.592 13.1605 180.371 13.1168 180.17 13.0228C179.969 12.9287 179.794 12.7872 179.659 12.6102C179.362 12.2027 179.215 11.7046 179.241 11.2002V11.1202C179.215 10.566 179.361 10.0172 179.659 9.55021C179.785 9.35739 179.958 9.2007 180.162 9.09552C180.366 8.99033 180.594 8.94026 180.823 8.95021C181.039 8.94583 181.253 8.99026 181.45 9.08021C181.633 9.16883 181.793 9.2989 181.917 9.46021V8.46021H180.992V7.87021H181.917V7.22021H182.644V7.87021H183.38L183.37 8.47021ZM179.968 11.2002C179.943 11.5516 180.031 11.9016 180.216 12.2002C180.301 12.3259 180.418 12.4265 180.554 12.4916C180.69 12.5567 180.842 12.5838 180.992 12.5702C181.185 12.5746 181.375 12.5225 181.539 12.4202C181.694 12.3122 181.82 12.1681 181.907 12.0002V10.0902C181.814 9.93206 181.689 9.79568 181.539 9.69021C181.374 9.59141 181.184 9.54279 180.992 9.55021C180.836 9.54156 180.68 9.57729 180.543 9.65332C180.406 9.72936 180.292 9.84263 180.216 9.98021C180.037 10.3322 179.951 10.725 179.968 11.1202V11.2002Z" fill="#000B68"/>
<path d="M186.404 12.4801C186.284 12.6838 186.117 12.8553 185.916 12.9801C185.706 13.0947 185.47 13.1532 185.23 13.1501C185.044 13.1555 184.859 13.1209 184.687 13.0484C184.516 12.976 184.362 12.8674 184.235 12.7301C183.962 12.3474 183.831 11.8799 183.867 11.4101V9.00006H184.603V11.4001C184.572 11.7093 184.638 12.0207 184.792 12.2901C184.867 12.3734 184.959 12.4384 185.063 12.4801C185.166 12.5217 185.278 12.5388 185.389 12.5301C185.615 12.5389 185.84 12.4835 186.036 12.3701C186.209 12.2675 186.342 12.1088 186.414 11.9201V9.00006H187.15V13.0501H186.493L186.404 12.4801ZM185.23 8.43006V7.86006C185.37 7.85934 185.508 7.8322 185.638 7.78006C185.676 7.76347 185.708 7.73524 185.73 7.69937C185.751 7.66349 185.761 7.62176 185.757 7.58006C185.757 7.53246 185.741 7.48626 185.712 7.44839C185.684 7.41053 185.644 7.38304 185.598 7.37006C185.458 7.31696 185.31 7.29314 185.16 7.30006V6.89006C185.451 6.87594 185.74 6.94163 185.996 7.08006C186.087 7.13276 186.162 7.20856 186.215 7.29984C186.267 7.39113 186.295 7.49468 186.294 7.60006C186.3 7.67452 186.289 7.74926 186.261 7.81859C186.233 7.88791 186.19 7.94999 186.135 8.00006C186.019 8.09626 185.877 8.15545 185.727 8.17006V8.43006H185.23Z" fill="#000B68"/>
<path d="M8.34536 9.61988L7.35057 8.61988C7.24607 8.51324 7.1875 8.36956 7.1875 8.21988C7.1875 8.07019 7.24607 7.92652 7.35057 7.81988C7.45665 7.71484 7.59958 7.65596 7.74848 7.65596C7.89739 7.65596 8.04032 7.71484 8.1464 7.81988L8.67364 8.34988L10.1658 6.84988C10.2736 6.74421 10.4182 6.68506 10.5687 6.68506C10.7193 6.68506 10.8638 6.74421 10.9716 6.84988C11.0761 6.95652 11.1347 7.10019 11.1347 7.24988C11.1347 7.39956 11.0761 7.54324 10.9716 7.64988L9.04171 9.58988C8.95024 9.68121 8.82813 9.73492 8.69932 9.74047C8.5705 9.74602 8.44427 9.70301 8.34536 9.61988Z" fill="#000B68"/>
<path d="M7.81894 13.1199C7.71152 13.1713 7.59442 13.199 7.47548 13.2012C7.35655 13.2034 7.23851 13.1801 7.12927 13.1327C7.02003 13.0854 6.9221 13.0152 6.84203 12.9267C6.76196 12.8383 6.7016 12.7337 6.66498 12.6199C6.64084 12.5508 6.61089 12.4839 6.57545 12.4199L5.72988 15.2599C5.72478 15.2812 5.72557 15.3035 5.73217 15.3244C5.73877 15.3452 5.75093 15.3639 5.76733 15.3783C5.78373 15.3928 5.80374 15.4024 5.82519 15.4062C5.84665 15.41 5.86873 15.4078 5.88905 15.3999L7.32155 14.8399C7.34272 14.8229 7.36903 14.8136 7.39616 14.8136C7.42328 14.8136 7.44959 14.8229 7.47077 14.8399L8.35613 16.0999C8.41582 16.1799 8.54514 16.1699 8.56504 16.0999L8.95301 14.8499L8.38597 13.1199C8.3131 13.0684 8.22634 13.0405 8.13728 13.0399C8.02639 13.0411 7.91734 13.0685 7.81894 13.1199Z" fill="#000B68"/>
<path d="M13.9269 7.94013C13.7416 7.79564 13.613 7.58996 13.5638 7.35941C13.5147 7.12886 13.5482 6.88827 13.6583 6.68013C13.6822 6.62869 13.695 6.57274 13.6957 6.51598C13.6964 6.45923 13.6851 6.40297 13.6625 6.35094C13.6399 6.29892 13.6066 6.25232 13.5647 6.21425C13.5228 6.17618 13.4734 6.1475 13.4196 6.13013C13.2046 6.07566 13.0169 5.94374 12.8922 5.75942C12.7675 5.57509 12.7145 5.35116 12.7431 5.13013C12.7445 5.07545 12.7349 5.02106 12.715 4.97015C12.6951 4.91925 12.6653 4.87286 12.6273 4.83373C12.5892 4.79459 12.5438 4.76349 12.4937 4.74226C12.4435 4.72104 12.3897 4.71011 12.3353 4.71013H12.2358C12.0198 4.7249 11.8058 4.6614 11.6324 4.53115C11.459 4.40089 11.3378 4.2125 11.2907 4.00013C11.2639 3.92758 11.2168 3.8644 11.155 3.81825C11.0932 3.7721 11.0194 3.74496 10.9426 3.74013C10.8871 3.72615 10.829 3.72615 10.7735 3.74013C10.6212 3.81411 10.4551 3.855 10.286 3.86013C10.1366 3.85557 9.99021 3.81724 9.8576 3.74799C9.72499 3.67874 9.60961 3.58035 9.52001 3.46013C9.48185 3.41894 9.43565 3.38609 9.38431 3.36364C9.33296 3.34118 9.27757 3.32959 9.22158 3.32959C9.16558 3.32959 9.11019 3.34118 9.05884 3.36364C9.0075 3.38609 8.96131 3.41894 8.92314 3.46013C8.83355 3.58035 8.71816 3.67874 8.58555 3.74799C8.45294 3.81724 8.30652 3.85557 8.15715 3.86013C7.98792 3.85623 7.82157 3.81528 7.6697 3.74013C7.61419 3.72615 7.5561 3.72615 7.50059 3.74013C7.41741 3.73977 7.33621 3.76562 7.26841 3.81405C7.2006 3.86248 7.1496 3.93105 7.12257 4.01013C7.07203 4.21522 6.95207 4.39625 6.78326 4.52214C6.61445 4.64804 6.40733 4.71097 6.19741 4.70013H6.09793C6.04352 4.70011 5.98966 4.71104 5.93952 4.73226C5.88937 4.75349 5.84396 4.78459 5.80595 4.82373C5.76795 4.86286 5.73811 4.90925 5.71821 4.96015C5.69831 5.01106 5.68874 5.06545 5.69007 5.12013C5.71872 5.34116 5.66567 5.56509 5.54098 5.74942C5.41629 5.93374 5.22863 6.06566 5.01361 6.12013C4.95985 6.1375 4.91039 6.16618 4.86851 6.20425C4.82664 6.24233 4.7933 6.28892 4.77071 6.34094C4.74813 6.39297 4.73682 6.44923 4.73754 6.50598C4.73825 6.56274 4.75097 6.61869 4.77486 6.67013C4.88504 6.87827 4.91852 7.11886 4.86937 7.34941C4.82022 7.57996 4.69162 7.78564 4.50626 7.93013C4.46656 7.96923 4.43502 8.01591 4.41348 8.06742C4.39195 8.11893 4.38086 8.17425 4.38086 8.23013C4.38086 8.286 4.39195 8.34132 4.41348 8.39283C4.43502 8.44434 4.46656 8.49102 4.50626 8.53013C4.69162 8.67461 4.82022 8.88029 4.86937 9.11084C4.91852 9.34139 4.88504 9.58198 4.77486 9.79013C4.7509 9.84228 4.73811 9.8989 4.73732 9.95634C4.73652 10.0138 4.74774 10.0707 4.77025 10.1235C4.79276 10.1763 4.82606 10.2238 4.86798 10.2628C4.9099 10.3019 4.95952 10.3316 5.01361 10.3501C5.22977 10.4026 5.41877 10.5341 5.54381 10.7189C5.66885 10.9038 5.72099 11.1288 5.69007 11.3501C5.68737 11.4056 5.69592 11.4611 5.71521 11.5132C5.7345 11.5652 5.76411 11.6128 5.80226 11.6531C5.8404 11.6933 5.88628 11.7253 5.93711 11.7471C5.98794 11.769 6.04265 11.7802 6.09793 11.7801H6.19741C6.40733 11.7693 6.61445 11.8322 6.78326 11.9581C6.95207 12.084 7.07203 12.265 7.12257 12.4701C7.15085 12.5484 7.20216 12.6162 7.26969 12.6644C7.33722 12.7126 7.41776 12.739 7.50059 12.7401C7.5561 12.7541 7.61419 12.7541 7.6697 12.7401C7.82157 12.665 7.98792 12.624 8.15715 12.6201C8.3057 12.6235 8.45161 12.6603 8.58416 12.7278C8.71671 12.7953 8.83254 12.8917 8.92314 13.0101C8.96131 13.0513 9.0075 13.0842 9.05884 13.1066C9.11019 13.1291 9.16558 13.1407 9.22158 13.1407C9.27757 13.1407 9.33296 13.1291 9.38431 13.1066C9.43565 13.0842 9.48185 13.0513 9.52001 13.0101C9.61061 12.8917 9.72644 12.7953 9.85899 12.7278C9.99155 12.6603 10.1375 12.6235 10.286 12.6201C10.4551 12.6253 10.6212 12.6661 10.7735 12.7401C10.829 12.7541 10.8871 12.7541 10.9426 12.7401C11.0254 12.739 11.1059 12.7126 11.1735 12.6644C11.241 12.6162 11.2923 12.5484 11.3206 12.4701C11.3711 12.265 11.4911 12.084 11.6599 11.9581C11.8287 11.8322 12.0358 11.7693 12.2457 11.7801H12.3452C12.4005 11.7802 12.4552 11.769 12.506 11.7471C12.5569 11.7253 12.6027 11.6933 12.6409 11.6531C12.679 11.6128 12.7087 11.5652 12.7279 11.5132C12.7472 11.4611 12.7558 11.4056 12.7531 11.3501C12.7222 11.1288 12.7743 10.9038 12.8993 10.7189C13.0244 10.5341 13.2134 10.4026 13.4295 10.3501C13.4836 10.3316 13.5332 10.3019 13.5752 10.2628C13.6171 10.2238 13.6504 10.1763 13.6729 10.1235C13.6954 10.0707 13.7066 10.0138 13.7058 9.95634C13.705 9.8989 13.6923 9.84228 13.6683 9.79013C13.5597 9.58413 13.5261 9.34648 13.5733 9.11823C13.6206 8.88999 13.7456 8.6855 13.9269 8.54013C13.9666 8.50102 13.9982 8.45434 14.0197 8.40283C14.0413 8.35132 14.0523 8.296 14.0523 8.24013C14.0523 8.18425 14.0413 8.12893 14.0197 8.07742C13.9982 8.02591 13.9666 7.97923 13.9269 7.94013ZM9.21163 11.4301C8.58399 11.4301 7.97045 11.243 7.44859 10.8925C6.92673 10.542 6.51999 10.0438 6.2798 9.46089C6.03962 8.87799 5.97677 8.23659 6.09922 7.61779C6.22167 6.99899 6.5239 6.43058 6.96771 5.98446C7.41151 5.53833 7.97696 5.23451 8.59253 5.11142C9.20811 4.98833 9.84617 5.05151 10.426 5.29295C11.0059 5.53439 11.5015 5.94326 11.8502 6.46786C12.1989 6.99245 12.385 7.6092 12.385 8.24013C12.385 8.66073 12.3023 9.07718 12.1416 9.46552C11.9808 9.85386 11.7453 10.2064 11.4485 10.5029C11.1517 10.7994 10.7996 11.0339 10.4122 11.1931C10.0249 11.3522 9.61014 11.4328 9.19173 11.4301H9.21163Z" fill="#000B68"/>
<path d="M10.9436 13.1998C10.8232 13.1983 10.7045 13.171 10.5954 13.1198C10.5 13.0698 10.3945 13.0425 10.287 13.0398C10.1996 13.044 10.1145 13.0688 10.0385 13.1122C9.96241 13.1557 9.89761 13.2165 9.8493 13.2898C9.76846 13.3751 9.67123 13.443 9.5635 13.4894C9.45577 13.5358 9.33979 13.5598 9.22258 13.5598C9.15328 13.5695 9.08297 13.5695 9.01367 13.5598L10.0085 16.5598C10.0165 16.5827 10.0313 16.6026 10.0508 16.6169C10.0704 16.6311 10.0937 16.6391 10.1179 16.6398C10.1384 16.6401 10.1586 16.6347 10.1762 16.6241C10.1938 16.6135 10.2081 16.5981 10.2174 16.5798L11.0729 15.2898C11.0842 15.2739 11.0992 15.2611 11.1165 15.2524C11.1338 15.2437 11.153 15.2394 11.1724 15.2398H11.2221L12.6646 15.7698C12.7441 15.7698 12.8138 15.6998 12.7839 15.6298L11.7891 12.5098C11.7836 12.5496 11.7836 12.59 11.7891 12.6298C11.7275 12.8033 11.6121 12.9523 11.4599 13.055C11.3077 13.1576 11.1267 13.2083 10.9436 13.1998Z" fill="#000B68"/>
</g>
<defs>
<clipPath id="clip0_383_76">
<rect width="191" height="19" fill="white"/>
</clipPath>
</defs>
</svg>
