<svg width="191" height="18" viewBox="0 0 191 18" fill="none" xmlns="http://www.w3.org/2000/svg">
<g clip-path="url(#clip0_383_34)">
<path d="M191 0H0V18H191V0Z" fill="#E9EFFF"/>
<path d="M29.239 12.1701C28.9305 12.5062 28.5561 12.7752 28.139 12.9601C27.5688 13.2085 26.9508 13.328 26.329 13.3101C25.9162 13.3261 25.5044 13.259 25.1179 13.113C24.7315 12.967 24.3782 12.745 24.079 12.4601C23.793 12.1695 23.5693 11.8237 23.4214 11.4437C23.2735 11.0637 23.2047 10.6576 23.219 10.2501V8.70013C23.2034 8.29573 23.2698 7.89235 23.4141 7.51427C23.5585 7.13618 23.7779 6.79122 24.059 6.50013C24.3418 6.21476 24.6806 5.99103 25.054 5.84302C25.4275 5.69501 25.8276 5.62593 26.229 5.64013C27.0055 5.5758 27.7766 5.81608 28.379 6.31013C28.874 6.78529 29.1645 7.43447 29.189 8.12013H27.559C27.5299 7.79367 27.3967 7.48519 27.179 7.24013C27.0576 7.13108 26.915 7.04818 26.7602 6.99657C26.6054 6.94496 26.4416 6.92575 26.279 6.94013C26.0856 6.93116 25.8931 6.97032 25.7185 7.05409C25.544 7.13787 25.393 7.26364 25.279 7.42013C25.0217 7.78104 24.8915 8.21722 24.909 8.66013V10.2201C24.8845 10.667 25.0152 11.1086 25.279 11.4701C25.3948 11.6247 25.5461 11.749 25.7202 11.8326C25.8943 11.9162 26.086 11.9565 26.279 11.9501C26.5281 11.9557 26.7769 11.9288 27.019 11.8701C27.1763 11.8332 27.3232 11.7614 27.449 11.6601V10.5201H26.329V9.37013H29.239V12.1701Z" fill="#000B68"/>
<path d="M31.9995 6.38021H30.2695V5.22021H31.9995V6.38021ZM31.9995 13.2002H30.2695V7.66021H31.9995V13.2002Z" fill="#000B68"/>
<path d="M36.2506 13.1901C36.1996 13.0971 36.1561 13.0001 36.1206 12.9001C36.1206 12.7901 36.0506 12.6701 36.0206 12.5601C35.8635 12.7828 35.6585 12.9673 35.4206 13.1001C35.1654 13.2465 34.8746 13.3192 34.5806 13.3101C34.1108 13.3259 33.6528 13.1613 33.3006 12.8501C33.1364 12.6958 33.0075 12.5077 32.9229 12.2988C32.8383 12.09 32.8 11.8652 32.8106 11.6401C32.7978 11.3943 32.8469 11.1492 32.9535 10.9273C33.0601 10.7054 33.2207 10.5138 33.4206 10.3701C33.9859 10.0299 34.6425 9.87273 35.3006 9.92013H35.9306V9.53013C35.9422 9.33227 35.8818 9.13689 35.7606 8.98013C35.694 8.91402 35.614 8.86287 35.5261 8.83011C35.4381 8.79735 35.3442 8.78372 35.2506 8.79013C35.0883 8.77886 34.9278 8.82881 34.8006 8.93013C34.6999 9.05379 34.6499 9.21103 34.6606 9.37013H33.0006C32.9891 9.12235 33.0409 8.87573 33.1511 8.65353C33.2613 8.43132 33.4263 8.24087 33.6306 8.10013C34.1445 7.73964 34.7636 7.56023 35.3906 7.59013C35.9865 7.56067 36.574 7.74115 37.0506 8.10013C37.266 8.27697 37.4364 8.50245 37.5477 8.75802C37.659 9.01359 37.7079 9.29193 37.6906 9.57013V11.6501C37.6873 11.9284 37.7107 12.2063 37.7606 12.4801C37.8142 12.7366 37.8912 12.9877 37.9906 13.2301L36.2506 13.1901ZM35.1106 12.0701C35.273 12.0755 35.4344 12.0412 35.5806 11.9701C35.7149 11.9057 35.8342 11.8137 35.9306 11.7001V10.8401H35.3106C35.2038 10.8311 35.0963 10.8443 34.9947 10.8787C34.8932 10.9131 34.7999 10.968 34.7206 11.0401C34.656 11.1078 34.6058 11.1879 34.5732 11.2756C34.5405 11.3633 34.526 11.4567 34.5306 11.5501C34.528 11.6213 34.541 11.6921 34.5687 11.7578C34.5963 11.8234 34.6379 11.8822 34.6906 11.9301C34.8095 12.0253 34.9584 12.0749 35.1106 12.0701Z" fill="#000B68"/>
<path d="M38.3895 10.3798C38.367 9.64772 38.6204 8.93386 39.0995 8.37984C39.6299 7.87251 40.3356 7.58936 41.0695 7.58936C41.8035 7.58936 42.5091 7.87251 43.0395 8.37984C43.5186 8.93386 43.7721 9.64772 43.7495 10.3798V10.4898C43.7721 11.222 43.5186 11.9358 43.0395 12.4898C42.7855 12.7615 42.4743 12.9732 42.1284 13.1099C41.7825 13.2465 41.4106 13.3046 41.0395 13.2798C40.6687 13.3025 40.2973 13.2434 39.9518 13.1069C39.6062 12.9704 39.2948 12.7598 39.0395 12.4898C38.5604 11.9358 38.307 11.222 38.3295 10.4898L38.3895 10.3798ZM40.1195 10.4898C40.1001 10.8659 40.1757 11.2408 40.3395 11.5798C40.4117 11.7103 40.5198 11.8173 40.651 11.8881C40.7821 11.959 40.9308 11.9909 41.0795 11.9798C41.2251 11.9882 41.37 11.955 41.4975 11.8842C41.6249 11.8134 41.7297 11.7078 41.7995 11.5798C41.9564 11.239 42.0252 10.8642 41.9995 10.4898V10.3798C42.0177 10.0071 41.9421 9.63576 41.7795 9.29984C41.7041 9.17346 41.5972 9.06881 41.4693 8.99615C41.3413 8.92348 41.1967 8.88527 41.0495 8.88527C40.9024 8.88527 40.7577 8.92348 40.6298 8.99615C40.5018 9.06881 40.3949 9.17346 40.3195 9.29984C40.157 9.63576 40.0813 10.0071 40.0995 10.3798L40.1195 10.4898Z" fill="#000B68"/>
<path d="M48.7098 7.66007L48.7698 8.44007C48.9436 8.17757 49.1722 7.95582 49.4398 7.79007C49.7119 7.63851 50.0184 7.55932 50.3298 7.56007C50.5691 7.54828 50.808 7.58969 51.0294 7.68134C51.2507 7.77299 51.4489 7.91258 51.6098 8.09007C51.9513 8.58039 52.1105 9.17472 52.0598 9.77007V13.2001H50.3298V9.76007C50.3557 9.52056 50.2876 9.28037 50.1398 9.09007C50.0611 9.02021 49.9693 8.96658 49.8698 8.93226C49.7702 8.89794 49.6649 8.8836 49.5598 8.89007C49.4116 8.88783 49.2647 8.91857 49.1298 8.98007C49.0092 9.03945 48.9006 9.12084 48.8098 9.22007V13.2201H47.0898V7.66007H48.7098Z" fill="#000B68"/>
<path d="M54.68 8.34996C54.8366 8.11278 55.0452 7.91443 55.29 7.76996C55.5331 7.62971 55.8094 7.5572 56.09 7.55996C56.3461 7.54896 56.6012 7.59741 56.8354 7.7015C57.0696 7.8056 57.2766 7.96252 57.44 8.15996C57.8065 8.70033 57.9792 9.34889 57.93 9.99996V13.2H56.2V9.99996C56.2316 9.6939 56.1651 9.3857 56.01 9.11996C55.9371 9.03677 55.8459 8.97175 55.7434 8.93009C55.641 8.88842 55.5302 8.87126 55.42 8.87996C55.2745 8.89741 55.1327 8.93792 55 8.99996C54.8823 9.04605 54.7764 9.11779 54.69 9.20996V13.21H53V5.20996H54.73L54.68 8.34996Z" fill="#000B68"/>
<path d="M62.0703 13.1899C62.0703 13.0999 61.9803 13.0099 61.9403 12.8999C61.9003 12.7899 61.8703 12.6699 61.8403 12.5599C61.6872 12.7824 61.4854 12.967 61.2503 13.0999C60.9951 13.2463 60.7044 13.319 60.4103 13.3099C59.9373 13.3273 59.4756 13.1627 59.1203 12.8499C58.9582 12.694 58.8307 12.5057 58.7463 12.2972C58.6619 12.0887 58.6223 11.8647 58.6303 11.6399C58.6196 11.3933 58.6706 11.148 58.7789 10.9262C58.8872 10.7044 59.0493 10.5131 59.2503 10.3699C59.8117 10.0293 60.4654 9.872 61.1203 9.91995H61.7503V9.52995C61.7648 9.33334 61.708 9.13809 61.5903 8.97995C61.5211 8.91459 61.4393 8.86403 61.3499 8.83136C61.2605 8.79869 61.1654 8.7846 61.0703 8.78995C60.9112 8.77925 60.754 8.82928 60.6303 8.92995C60.5768 8.98931 60.5359 9.05892 60.5102 9.13455C60.4844 9.21019 60.4742 9.29027 60.4803 9.36995H58.8103C58.7988 9.12218 58.8506 8.87555 58.9608 8.65335C59.0711 8.43115 59.2361 8.24069 59.4403 8.09995C59.9535 7.73807 60.5731 7.55852 61.2003 7.58995C61.7958 7.56385 62.3822 7.74398 62.8603 8.09995C63.0739 8.27835 63.243 8.50411 63.3541 8.75929C63.4652 9.01447 63.5153 9.29204 63.5003 9.56995V11.6499C63.497 11.9282 63.5205 12.2062 63.5703 12.4799C63.6205 12.7362 63.6941 12.9872 63.7903 13.2299L62.0703 13.1899ZM60.9303 12.0699C61.0928 12.0753 61.2541 12.041 61.4003 11.9699C61.5357 11.9072 61.6553 11.8149 61.7503 11.7V10.8399H61.1403C61.032 10.8319 60.9233 10.8454 60.8203 10.8798C60.7173 10.9141 60.6221 10.9686 60.5403 11.04C60.4163 11.1801 60.3518 11.363 60.3603 11.5499C60.3578 11.6211 60.3708 11.692 60.3984 11.7576C60.426 11.8232 60.4676 11.882 60.5203 11.9299C60.6348 12.0261 60.781 12.076 60.9303 12.0699Z" fill="#000B68"/>
<path d="M65.9999 7.66007L66.0599 8.44007C66.2337 8.17757 66.4623 7.95582 66.7299 7.79007C67.002 7.63851 67.3085 7.55932 67.6199 7.56007C67.8592 7.54828 68.0981 7.58969 68.3194 7.68134C68.5408 7.77299 68.739 7.91258 68.8999 8.09007C69.2414 8.58039 69.4006 9.17472 69.3499 9.77007V13.2001H67.6599V9.76007C67.6858 9.52056 67.6176 9.28037 67.4699 9.09007C67.3912 9.02021 67.2994 8.96658 67.1999 8.93226C67.1003 8.89794 66.995 8.8836 66.8899 8.89007C66.7417 8.88783 66.5948 8.91857 66.4599 8.98007C66.3392 9.03945 66.2307 9.12084 66.1399 9.22007V13.2201H64.4199V7.66007H65.9999Z" fill="#000B68"/>
<path d="M71.9993 8.35016C72.1559 8.11298 72.3645 7.91462 72.6093 7.77016C72.8524 7.62991 73.1287 7.55739 73.4093 7.56016C73.6654 7.54916 73.9205 7.5976 74.1547 7.7017C74.3889 7.8058 74.5959 7.96271 74.7593 8.16016C75.1293 8.69926 75.3056 9.34792 75.2593 10.0002V13.2002H73.5293V10.0002C73.5609 9.69409 73.4944 9.3859 73.3393 9.12016C73.2664 9.03697 73.1752 8.97195 73.0727 8.93028C72.9703 8.88861 72.8595 8.87145 72.7493 8.88016C72.6032 8.88058 72.458 8.9042 72.3193 8.95016C72.2016 8.99624 72.0957 9.06798 72.0093 9.16016V13.1602H70.2793V5.16016H71.9993V8.35016Z" fill="#000B68"/>
<path d="M82.1891 10.6498H79.1191V9.31982H82.1891V10.6498Z" fill="#000B68"/>
<path d="M88.5102 5.75L90.1802 11L91.8702 5.79H94.1502V13.2H92.4202V11.35L92.5802 7.95L90.7802 13.21H89.6202L87.8402 8L88.0002 11.35V13.2H86.2402V5.75H88.5102Z" fill="#000B68"/>
<path d="M97.0701 6.38021H95.3301V5.22021H97.0701V6.38021ZM97.0701 13.2002H95.3301V7.66021H97.0701V13.2002Z" fill="#000B68"/>
<path d="M100.649 13.3099C100.28 13.3324 99.9104 13.2753 99.5653 13.1424C99.2202 13.0096 98.9078 12.8041 98.649 12.5399C98.4049 12.2831 98.2146 11.98 98.0893 11.6486C97.9639 11.3172 97.906 10.964 97.919 10.6099V10.4199C97.8863 9.67652 98.1204 8.94591 98.579 8.35992C98.8127 8.08916 99.1057 7.87606 99.4353 7.73729C99.7649 7.59851 100.122 7.53781 100.479 7.55992C100.804 7.54238 101.129 7.59392 101.432 7.71114C101.735 7.82836 102.01 8.00858 102.239 8.23992C102.686 8.74131 102.916 9.3993 102.879 10.0699V10.9999H99.719C99.7503 11.267 99.8741 11.5147 100.069 11.6999C100.282 11.8923 100.562 11.9929 100.849 11.9799C101.111 11.9851 101.373 11.9583 101.629 11.8999C101.886 11.8298 102.137 11.7395 102.379 11.6299L102.789 12.6899C102.499 12.8815 102.182 13.0297 101.849 13.1299C101.46 13.248 101.056 13.3086 100.649 13.3099ZM102.529 6.99992H100.999L100.279 6.40992L99.559 6.99992H98.069L99.579 5.90992H100.999L102.529 6.99992ZM101.819 4.65992C101.821 4.88887 101.751 5.1126 101.619 5.29992C101.562 5.38495 101.484 5.45426 101.394 5.50144C101.303 5.54863 101.201 5.57218 101.099 5.56992C100.869 5.55445 100.645 5.49326 100.439 5.38992C100.252 5.29306 100.048 5.23201 99.839 5.20992C99.8029 5.20909 99.7674 5.21913 99.7371 5.23875C99.7068 5.25837 99.6831 5.28665 99.669 5.31992C99.6511 5.41576 99.6511 5.51408 99.669 5.60992L99.019 5.42992C99.0177 5.20249 99.0838 4.97977 99.209 4.78992C99.2645 4.70568 99.3403 4.63678 99.4294 4.58958C99.5186 4.54239 99.6182 4.51843 99.719 4.51992C99.9413 4.54184 100.158 4.60277 100.359 4.69992C100.555 4.7931 100.764 4.85389 100.979 4.87992C101.018 4.87578 101.055 4.86031 101.085 4.83543C101.115 4.81054 101.138 4.77733 101.149 4.73992C101.184 4.637 101.201 4.52869 101.199 4.41992L101.819 4.65992ZM100.529 8.85992C100.42 8.85265 100.312 8.87371 100.213 8.92103C100.115 8.96836 100.031 9.04033 99.969 9.12992C99.8291 9.3412 99.7495 9.58671 99.739 9.83992H101.229V9.70992C101.244 9.4823 101.18 9.25648 101.049 9.06992C100.981 9.00313 100.899 8.95232 100.809 8.92118C100.719 8.89004 100.624 8.87936 100.529 8.88992V8.85992Z" fill="#000B68"/>
<path d="M105.261 7.65978L105.321 8.43978C105.492 8.17493 105.721 7.95261 105.991 7.78978C106.262 7.63695 106.569 7.55767 106.881 7.55978C107.119 7.54736 107.356 7.58853 107.576 7.68027C107.796 7.772 107.992 7.91195 108.151 8.08978C108.501 8.57653 108.664 9.17275 108.611 9.76978V13.1998H106.881V9.75978C106.907 9.52027 106.839 9.28008 106.691 9.08978C106.528 8.94904 106.316 8.87731 106.101 8.88978C105.956 8.8866 105.812 8.91742 105.681 8.97978C105.559 9.03741 105.45 9.11905 105.361 9.21978V13.2198H103.631V7.65978H105.261Z" fill="#000B68"/>
<path d="M117.29 10.5501C117.326 11.2614 117.125 11.9645 116.72 12.5501C116.54 12.7969 116.301 12.9954 116.025 13.128C115.75 13.2605 115.446 13.3231 115.14 13.3101C114.894 13.3117 114.652 13.257 114.43 13.1501C114.219 13.0472 114.034 12.8966 113.89 12.7101V15.3301H112.16V7.66013H113.78L113.84 8.27013C113.982 8.05745 114.17 7.87965 114.39 7.75013C114.614 7.61842 114.871 7.55256 115.13 7.56013C115.44 7.54975 115.747 7.6165 116.025 7.7544C116.302 7.8923 116.541 8.09701 116.72 8.35013C117.125 8.96956 117.325 9.70087 117.29 10.4401V10.5501ZM115.56 10.4401C115.575 10.0568 115.507 9.67476 115.36 9.32013C115.307 9.18968 115.216 9.07856 115.098 9.00169C114.98 8.92483 114.841 8.8859 114.7 8.89013C114.53 8.88452 114.361 8.92238 114.21 9.00013C114.076 9.07062 113.965 9.17824 113.89 9.31013V11.6201C113.969 11.7383 114.08 11.8319 114.21 11.8901C114.369 11.9532 114.539 11.9838 114.71 11.9801C114.845 11.9873 114.979 11.9552 115.096 11.8877C115.213 11.8203 115.309 11.7204 115.37 11.6001C115.514 11.2696 115.579 10.9101 115.56 10.5501V10.4401Z" fill="#000B68"/>
<path d="M119.73 8.34996C119.884 8.11064 120.093 7.91175 120.34 7.76996C120.579 7.62961 120.852 7.55702 121.13 7.55996C121.386 7.54659 121.642 7.59397 121.877 7.69824C122.111 7.8025 122.318 7.9607 122.48 8.15996C122.857 8.69653 123.04 9.34539 123 9.99996V13.2H121.27V9.99996C121.302 9.6939 121.235 9.3857 121.08 9.11996C121.009 9.03757 120.919 8.97297 120.818 8.93131C120.718 8.88964 120.609 8.87206 120.5 8.87996C120.328 8.88985 120.158 8.93049 120 8.99996C119.885 9.04614 119.783 9.11798 119.7 9.20996V13.21H118V5.20996H119.73V8.34996Z" fill="#000B68"/>
<path d="M125.09 5.60986H126.87L125.45 6.99986H124L125.09 5.60986ZM125.81 13.1999H124.07V7.65986H125.81V13.1999Z" fill="#000B68"/>
<path d="M131.22 12.6999C131.457 12.7027 131.688 12.6212 131.87 12.4699C131.956 12.4037 132.026 12.3189 132.074 12.222C132.123 12.125 132.149 12.0183 132.15 11.9099H132.81C132.81 12.091 132.768 12.2696 132.686 12.4312C132.605 12.5928 132.486 12.7329 132.34 12.8399C132.025 13.1089 131.624 13.2545 131.21 13.2499C130.956 13.2641 130.701 13.2191 130.467 13.1185C130.233 13.0179 130.025 12.8643 129.86 12.6699C129.538 12.2568 129.372 11.7435 129.39 11.2199V11.0599C129.375 10.5399 129.541 10.0308 129.86 9.61993C130.024 9.42493 130.232 9.27098 130.466 9.17029C130.701 9.06961 130.955 9.02497 131.21 9.03993C131.637 9.02146 132.054 9.17242 132.37 9.45993C132.513 9.58383 132.626 9.73774 132.702 9.91063C132.778 10.0835 132.815 10.2711 132.81 10.4599H132.15C132.15 10.343 132.127 10.2272 132.083 10.1191C132.038 10.011 131.973 9.91271 131.89 9.82993C131.71 9.65794 131.469 9.56443 131.22 9.56993C131.057 9.55771 130.893 9.59037 130.747 9.66439C130.6 9.73841 130.477 9.85097 130.39 9.98993C130.221 10.2957 130.135 10.6405 130.14 10.9899V11.1499C130.135 11.4994 130.221 11.8442 130.39 12.1499C130.458 12.3139 130.573 12.4539 130.721 12.5519C130.869 12.6499 131.043 12.7014 131.22 12.6999Z" fill="#0B1B7D"/>
<path d="M134.381 9.68986C134.517 9.49871 134.695 9.34132 134.901 9.22986C135.109 9.12528 135.338 9.0705 135.571 9.06986C135.756 9.06057 135.94 9.09052 136.113 9.15774C136.285 9.22496 136.441 9.32793 136.571 9.45986C136.837 9.80038 136.966 10.2288 136.931 10.6599V13.1999H136.201V10.6499C136.218 10.3848 136.14 10.1223 135.981 9.90986C135.898 9.82618 135.798 9.76142 135.687 9.72C135.577 9.67858 135.459 9.66148 135.341 9.66986C135.145 9.6686 134.953 9.71676 134.781 9.80986C134.616 9.91106 134.476 10.0477 134.371 10.2099V13.2099H133.631V7.35986H134.371L134.381 9.68986Z" fill="#0B1B7D"/>
<path d="M137.83 11.1302C137.809 10.5939 137.983 10.0681 138.32 9.65023C138.481 9.45938 138.684 9.30792 138.913 9.2074C139.141 9.10688 139.39 9.05996 139.64 9.07023C139.891 9.06137 140.141 9.10888 140.371 9.20925C140.601 9.30962 140.806 9.46031 140.97 9.65023C141.308 10.0672 141.483 10.5936 141.46 11.1302V11.2202C141.492 11.7531 141.328 12.2795 141 12.7002C140.839 12.8911 140.636 13.0426 140.407 13.1431C140.178 13.2436 139.929 13.2905 139.68 13.2802C139.429 13.2891 139.179 13.2416 138.949 13.1412C138.719 13.0408 138.514 12.8902 138.35 12.7002C138.011 12.2833 137.837 11.7568 137.86 11.2202L137.83 11.1302ZM138.57 11.2202C138.556 11.5922 138.65 11.9601 138.84 12.2802C138.933 12.4063 139.054 12.5089 139.194 12.5795C139.334 12.6502 139.488 12.687 139.645 12.687C139.801 12.687 139.956 12.6502 140.096 12.5795C140.236 12.5089 140.357 12.4063 140.45 12.2802C140.64 11.9601 140.733 11.5922 140.72 11.2202V11.1302C140.73 10.7587 140.637 10.3916 140.45 10.0702C140.363 9.93583 140.243 9.8264 140.101 9.75275C139.959 9.67909 139.8 9.64376 139.64 9.65023C139.481 9.64246 139.323 9.67731 139.183 9.75116C139.042 9.82502 138.924 9.93519 138.84 10.0702C138.653 10.3916 138.56 10.7587 138.57 11.1302V11.2202Z" fill="#0B1B7D"/>
<path d="M148.261 8.5901H147.521V13.2001H146.921L146.831 12.7001C146.709 12.8812 146.544 13.029 146.351 13.1301C146.143 13.2334 145.913 13.2849 145.681 13.2801C145.458 13.2904 145.236 13.2467 145.034 13.1527C144.832 13.0586 144.656 12.9171 144.521 12.7401C144.225 12.3311 144.077 11.8341 144.101 11.3301V11.2501C144.075 10.6928 144.221 10.141 144.521 9.6701C144.647 9.47727 144.821 9.32058 145.026 9.2154C145.231 9.11021 145.46 9.06014 145.691 9.0701C145.907 9.07061 146.121 9.11483 146.321 9.2001C146.503 9.29183 146.663 9.42139 146.791 9.5801V8.5801H145.861V8.0001H146.791V7.3501H147.521V8.0001H148.261V8.5901ZM144.841 11.3301C144.818 11.6813 144.906 12.0307 145.091 12.3301C145.177 12.4543 145.295 12.5538 145.431 12.6187C145.568 12.6836 145.72 12.7116 145.871 12.7001C146.065 12.7045 146.256 12.6524 146.421 12.5501C146.576 12.4421 146.703 12.298 146.791 12.1301V10.2201C146.7 10.0599 146.573 9.92302 146.421 9.8201C146.256 9.71779 146.065 9.66567 145.871 9.6701C145.713 9.66358 145.556 9.70131 145.418 9.77904C145.28 9.85678 145.167 9.97143 145.091 10.1101C144.908 10.4613 144.822 10.8547 144.841 11.2501V11.3301Z" fill="#0B1B7D"/>
<path d="M148.56 11.1301C148.543 10.5944 148.717 10.0701 149.05 9.65012C149.213 9.46097 149.416 9.3107 149.644 9.21033C149.872 9.10996 150.12 9.06205 150.37 9.07012C150.609 9.0699 150.846 9.11397 151.07 9.20012C151.28 9.28403 151.47 9.40994 151.63 9.57012C151.723 9.55143 151.812 9.51441 151.891 9.46119C151.97 9.40798 152.037 9.33964 152.09 9.26012C152.196 9.06416 152.248 8.84306 152.24 8.62012H152.9C152.914 8.93587 152.826 9.24775 152.65 9.51012C152.472 9.751 152.213 9.91826 151.92 9.98012C152.015 10.1484 152.082 10.3307 152.12 10.5201C152.169 10.7197 152.192 10.9246 152.19 11.1301V11.2201C152.213 11.7551 152.042 12.2804 151.71 12.7001C151.54 12.8837 151.335 13.0303 151.106 13.1305C150.877 13.2307 150.63 13.2824 150.38 13.2824C150.13 13.2824 149.883 13.2307 149.654 13.1305C149.425 13.0303 149.219 12.8837 149.05 12.7001C148.716 12.2805 148.542 11.756 148.56 11.2201V11.1301ZM149.3 11.2201C149.286 11.592 149.38 11.96 149.57 12.2801C149.663 12.4062 149.784 12.5087 149.924 12.5794C150.064 12.65 150.218 12.6868 150.375 12.6868C150.531 12.6868 150.686 12.65 150.826 12.5794C150.966 12.5087 151.087 12.4062 151.18 12.2801C151.37 11.96 151.463 11.592 151.45 11.2201V11.1301C151.46 10.7586 151.367 10.3915 151.18 10.0701C151.087 9.944 150.966 9.84149 150.826 9.77085C150.686 9.7002 150.531 9.66339 150.375 9.66339C150.218 9.66339 150.064 9.7002 149.924 9.77085C149.784 9.84149 149.663 9.944 149.57 10.0701C149.383 10.3915 149.29 10.7586 149.3 11.1301V11.2201Z" fill="#0B1B7D"/>
<path d="M153.791 9.15023L153.851 9.75023C153.975 9.54586 154.146 9.37437 154.351 9.25023C154.564 9.12911 154.806 9.06698 155.051 9.07023C155.236 9.0603 155.421 9.08995 155.593 9.15721C155.765 9.22447 155.922 9.32778 156.051 9.46023C156.317 9.7932 156.446 10.2154 156.411 10.6402V13.2002H155.681V10.6602C155.698 10.5253 155.687 10.3882 155.649 10.2576C155.611 10.1269 155.547 10.0053 155.461 9.90023C155.376 9.81888 155.276 9.75632 155.165 9.71668C155.055 9.67703 154.938 9.6612 154.821 9.67023C154.621 9.66745 154.424 9.71931 154.251 9.82023C154.091 9.92973 153.958 10.0732 153.861 10.2402V13.2402H153.131V9.24023L153.791 9.15023Z" fill="#0B1B7D"/>
<path d="M160.37 8.1699V9.1699H161.14V9.7099H160.37V12.1699C160.362 12.2412 160.368 12.3135 160.389 12.3822C160.41 12.451 160.444 12.5148 160.49 12.5699C160.53 12.6104 160.579 12.6421 160.632 12.6627C160.686 12.6834 160.743 12.6927 160.8 12.6899C160.846 12.6991 160.894 12.6991 160.94 12.6899H161.08L161.18 13.1899C161.108 13.2421 161.027 13.2795 160.94 13.2999C160.836 13.3304 160.728 13.3472 160.62 13.3499C160.487 13.3569 160.354 13.3356 160.23 13.2873C160.106 13.239 159.993 13.1649 159.9 13.0699C159.801 12.953 159.726 12.8178 159.68 12.6719C159.634 12.526 159.617 12.3724 159.63 12.2199V9.6899H159V9.1499H159.64V8.1499L160.37 8.1699Z" fill="#0B1B7D"/>
<path d="M166.68 8.6001C166.706 8.9622 166.591 9.32039 166.36 9.6001C166.089 9.8571 165.732 10.0034 165.36 10.0101V13.2001H164.7V12.6001C164.583 12.81 164.412 12.9842 164.204 13.104C163.996 13.2238 163.76 13.2847 163.52 13.2801C163.331 13.287 163.144 13.252 162.971 13.1777C162.798 13.1033 162.644 12.9914 162.52 12.8501C162.241 12.4729 162.11 12.0072 162.15 11.5401V9.1501H162.88V11.5401C162.853 11.8491 162.919 12.1589 163.07 12.4301C163.142 12.5172 163.234 12.5854 163.339 12.629C163.443 12.6725 163.557 12.6901 163.67 12.6801C163.897 12.6854 164.121 12.6301 164.32 12.5201C164.49 12.41 164.625 12.254 164.71 12.0701V9.1501H165.44V9.5701C165.542 9.57167 165.644 9.54893 165.736 9.50374C165.828 9.45855 165.908 9.39219 165.97 9.3101C166.092 9.09099 166.148 8.8406 166.13 8.5901L166.68 8.6001ZM164 8.6001H163.41L162.47 7.6001H163.33L164 8.6001Z" fill="#0B1B7D"/>
<path d="M169.411 9.99987H170.001C170.107 10.008 170.214 9.99346 170.314 9.95726C170.414 9.92105 170.505 9.86399 170.581 9.78987C170.71 9.63283 170.774 9.43262 170.761 9.22987C170.771 9.03674 170.706 8.8472 170.581 8.69987C170.508 8.63089 170.421 8.57758 170.327 8.54319C170.232 8.5088 170.131 8.49406 170.031 8.49987C169.845 8.49531 169.663 8.55936 169.521 8.67987C169.453 8.73725 169.398 8.80935 169.362 8.89076C169.326 8.97216 169.308 9.06075 169.311 9.14987H168.251C168.242 8.94687 168.282 8.74466 168.367 8.56021C168.452 8.37576 168.58 8.21447 168.741 8.08987C169.105 7.81183 169.553 7.6671 170.011 7.67987C170.494 7.65136 170.972 7.79289 171.361 8.07987C171.531 8.2195 171.666 8.39731 171.755 8.59887C171.843 8.80042 171.883 9.02003 171.871 9.23987C171.867 9.48184 171.786 9.7163 171.641 9.90987C171.485 10.1276 171.275 10.3002 171.031 10.4099C171.308 10.4996 171.549 10.6746 171.721 10.9099C171.875 11.137 171.955 11.4057 171.951 11.6799C171.96 11.9052 171.916 12.1296 171.823 12.3347C171.729 12.5397 171.588 12.7197 171.411 12.8599C171.006 13.1567 170.513 13.3082 170.011 13.2899C169.544 13.3 169.087 13.1559 168.711 12.8799C168.534 12.7524 168.392 12.5816 168.299 12.3838C168.206 12.186 168.165 11.9678 168.181 11.7499H169.241C169.24 11.8465 169.259 11.9423 169.299 12.0304C169.339 12.1186 169.398 12.1969 169.471 12.2599C169.546 12.3287 169.635 12.3818 169.731 12.4161C169.827 12.4504 169.929 12.4653 170.031 12.4599C170.249 12.4729 170.464 12.4012 170.631 12.2599C170.706 12.186 170.765 12.0969 170.803 11.9986C170.84 11.9003 170.857 11.7951 170.851 11.6899C170.861 11.5761 170.848 11.4614 170.812 11.353C170.776 11.2445 170.717 11.1448 170.641 11.0599C170.462 10.9123 170.232 10.8406 170.001 10.8599H169.391L169.411 9.99987Z" fill="#0B1B7D"/>
<path d="M176.37 11.0799C176.412 11.668 176.237 12.2511 175.88 12.7199C175.711 12.9058 175.504 13.0524 175.272 13.1492C175.041 13.246 174.79 13.2906 174.54 13.2799C174.286 13.2901 174.033 13.2454 173.798 13.1487C173.564 13.0521 173.353 12.9058 173.18 12.7199C172.822 12.2511 172.648 11.668 172.69 11.0799V9.86987C172.648 9.28177 172.822 8.69859 173.18 8.22987C173.356 8.05299 173.566 7.91266 173.797 7.81691C174.027 7.72116 174.275 7.67187 174.525 7.67188C174.775 7.67187 175.022 7.72116 175.253 7.81691C175.484 7.91266 175.693 8.05299 175.87 8.22987C176.235 8.69498 176.414 9.27996 176.37 9.86987V11.0799ZM175.28 9.75987C175.304 9.43179 175.239 9.10322 175.09 8.80987C175.031 8.71474 174.949 8.63683 174.85 8.58412C174.752 8.5314 174.641 8.50578 174.53 8.50987C174.418 8.50361 174.306 8.52829 174.208 8.58122C174.109 8.63414 174.026 8.71325 173.97 8.80987C173.821 9.10322 173.755 9.43179 173.78 9.75987V11.1799C173.753 11.5081 173.819 11.8372 173.97 12.1299C174.03 12.2258 174.114 12.3041 174.214 12.3568C174.314 12.4095 174.427 12.4347 174.54 12.4299C174.65 12.4343 174.759 12.4087 174.856 12.3559C174.953 12.303 175.034 12.2249 175.09 12.1299C175.241 11.8372 175.306 11.5081 175.28 11.1799V9.75987Z" fill="#0B1B7D"/>
<path d="M180.77 11.0799C180.811 11.668 180.637 12.2511 180.28 12.7199C180.109 12.9066 179.9 13.0536 179.667 13.1504C179.434 13.2472 179.182 13.2914 178.93 13.2799C178.677 13.2893 178.426 13.2442 178.193 13.1476C177.96 13.0509 177.751 12.905 177.58 12.7199C177.218 12.2525 177.04 11.6692 177.08 11.0799V9.86987C177.04 9.2805 177.218 8.6972 177.58 8.22987C177.756 8.05299 177.966 7.91266 178.196 7.81691C178.427 7.72116 178.675 7.67187 178.925 7.67188C179.174 7.67187 179.422 7.72116 179.653 7.81691C179.883 7.91266 180.093 8.05299 180.27 8.22987C180.635 8.69498 180.813 9.27996 180.77 9.86987V11.0799ZM179.68 9.75987C179.704 9.43179 179.638 9.10322 179.49 8.80987C179.431 8.71474 179.348 8.63683 179.25 8.58412C179.152 8.5314 179.041 8.50578 178.93 8.50987C178.818 8.50361 178.706 8.52829 178.607 8.58122C178.509 8.63414 178.426 8.71325 178.37 8.80987C178.217 9.10207 178.147 9.43083 178.17 9.75987V11.1799C178.145 11.5091 178.214 11.8386 178.37 12.1299C178.427 12.2257 178.51 12.3042 178.608 12.357C178.707 12.4099 178.818 12.435 178.93 12.4299C179.041 12.4361 179.153 12.4114 179.252 12.3585C179.35 12.3056 179.433 12.2265 179.49 12.1299C179.64 11.8372 179.706 11.5081 179.68 11.1799V9.75987Z" fill="#0B1B7D"/>
<path d="M183.341 10.92H182.731V13.2H181.641V7.75H182.731V10H183.211L184.651 7.78H186.001L184.161 10.32L186.161 13.23H184.801L183.341 10.92Z" fill="#0B1B7D"/>
<path d="M6.16932 8.67981C6.16932 8.64533 6.15563 8.61226 6.13125 8.58788C6.10687 8.5635 6.0738 8.54981 6.03932 8.54981H4.99932C4.98269 8.54975 4.96622 8.55315 4.95097 8.5598C4.93572 8.56644 4.92201 8.57619 4.91073 8.58841C4.89945 8.60064 4.89083 8.61507 4.88542 8.63081C4.88001 8.64654 4.87794 8.66323 4.87932 8.67981C4.87932 8.71163 4.89197 8.74215 4.91447 8.76466C4.93697 8.78716 4.9675 8.79981 4.99932 8.79981H5.99932C6.01854 8.80603 6.03893 8.80769 6.0589 8.80465C6.07886 8.80162 6.09785 8.79398 6.11434 8.78234C6.13084 8.77069 6.1444 8.75536 6.15394 8.73756C6.16349 8.71977 6.16875 8.69999 6.16932 8.67981Z" fill="#000B68"/>
<path d="M18.3802 11.46C18.3802 11.0277 18.2085 10.6131 17.9028 10.3075C17.5971 10.0018 17.1825 9.83004 16.7502 9.83004H16.6302L15.8002 8.00004C15.7824 7.94944 15.7513 7.90455 15.7102 7.87004C15.6903 7.82638 15.6577 7.7897 15.6167 7.76475C15.5757 7.73979 15.5282 7.7277 15.4802 7.73004H14.8802V7.41004C14.8776 7.31365 14.8375 7.22209 14.7684 7.15485C14.6993 7.08761 14.6067 7.05 14.5102 7.05004H13.3902C13.5224 6.8235 13.6875 6.61791 13.8802 6.44004C14.1658 6.43667 14.4416 6.3356 14.6618 6.15366C14.8819 5.97172 15.0331 5.71987 15.0902 5.44004H15.4502C15.4108 5.19089 15.2786 4.96586 15.0802 4.81004C14.9901 4.57045 14.8287 4.3643 14.6176 4.21944C14.4066 4.07458 14.1562 3.998 13.9002 4.00004C13.6443 4.0016 13.3949 4.08106 13.1853 4.22784C12.9756 4.37462 12.8156 4.58176 12.7266 4.8217C12.6376 5.06165 12.6237 5.32301 12.6869 5.57102C12.7501 5.81903 12.8873 6.04192 13.0802 6.21004C12.0663 6.19722 11.0821 6.55251 10.3102 7.21004C10.2564 7.24223 10.2117 7.28756 10.1802 7.34179C10.1487 7.39601 10.1315 7.45735 10.1302 7.52004C10.1328 7.61737 10.1726 7.71002 10.2414 7.77887C10.3103 7.84772 10.4029 7.88751 10.5002 7.89004H10.8702C10.5636 8.28325 10.2956 8.70522 10.0702 9.15004H9.62024V9.08004L10.0702 6.44004C10.0764 6.40846 10.0753 6.37587 10.0669 6.3448C10.0585 6.31373 10.0431 6.28501 10.0218 6.26084C10.0006 6.23668 9.97403 6.21773 9.94427 6.20546C9.91452 6.19318 9.88235 6.1879 9.85023 6.19004H7.39023C7.31882 6.1882 7.24896 6.21108 7.19248 6.25481C7.13599 6.29854 7.09634 6.36044 7.08023 6.43004L6.62023 9.00004C6.61538 9.02984 6.61538 9.06024 6.62023 9.09004H5.91023C5.86593 9.09244 5.82407 9.11112 5.79269 9.1425C5.76132 9.17387 5.74263 9.21573 5.74023 9.26004C5.74023 9.30513 5.75815 9.34837 5.79003 9.38025C5.82191 9.41213 5.86515 9.43004 5.91023 9.43004H14.6202C14.3067 9.1593 13.9404 8.95644 13.5446 8.83425C13.1487 8.71205 12.7319 8.67317 12.3202 8.72004C12.3202 8.72004 12.5702 8.31004 12.8802 7.83004H13.3902C13.3484 7.87721 13.3238 7.93711 13.3202 8.00004C13.3202 8.07165 13.3487 8.14032 13.3993 8.19096C13.4499 8.24159 13.5186 8.27004 13.5902 8.27004H14.9002C14.8959 8.31326 14.8959 8.35682 14.9002 8.40004L15.4302 9.55004L15.2302 9.76004H13.4602C13.4311 9.76004 13.4031 9.77163 13.3825 9.79226C13.3618 9.81289 13.3502 9.84087 13.3502 9.87004C13.3502 9.89921 13.3618 9.92719 13.3825 9.94782C13.4031 9.96845 13.4311 9.98004 13.4602 9.98004H15.1302C15.1497 9.98612 15.1668 9.998 15.1793 10.0141C15.1918 10.0302 15.1991 10.0497 15.2002 10.07C15.2049 10.0811 15.2073 10.093 15.2073 10.105C15.2073 10.1171 15.2049 10.129 15.2002 10.14H12.0802C12.0378 10.14 11.9971 10.1569 11.9671 10.1869C11.9371 10.2169 11.9202 10.2576 11.9202 10.3C11.9228 10.3407 11.9408 10.3789 11.9705 10.4068C12.0002 10.4346 12.0395 10.4501 12.0802 10.45H14.5702C14.5994 10.45 14.6274 10.4616 14.648 10.4823C14.6686 10.5029 14.6802 10.5309 14.6802 10.56C14.6802 10.5892 14.6686 10.6172 14.648 10.6378C14.6274 10.6585 14.5994 10.67 14.5702 10.67H11.1902C11.1478 10.67 11.1071 10.6869 11.0771 10.7169C11.0471 10.7469 11.0302 10.7876 11.0302 10.83C11.0302 10.8725 11.0471 10.9132 11.0771 10.9432C11.1071 10.9732 11.1478 10.99 11.1902 10.99H14.2802C14.2983 11.0045 14.3131 11.0227 14.3234 11.0434C14.3338 11.0642 14.3395 11.0869 14.3402 11.11C14.3403 11.1306 14.3361 11.151 14.3279 11.1698C14.3198 11.1887 14.3078 11.2057 14.2928 11.2198C14.2778 11.2339 14.2601 11.2447 14.2407 11.2516C14.2213 11.2585 14.2008 11.2614 14.1802 11.26H10.5002C10.4542 11.2626 10.411 11.2827 10.3794 11.3162C10.3477 11.3497 10.3302 11.394 10.3302 11.44V11.49C10.3326 11.5343 10.3513 11.5762 10.3827 11.6076C10.4141 11.639 10.4559 11.6576 10.5002 11.66H13.7802C13.7998 11.6689 13.8166 11.6829 13.8289 11.7005C13.8412 11.7181 13.8486 11.7386 13.8502 11.76C13.8501 11.7767 13.8454 11.793 13.8366 11.8071C13.8277 11.8212 13.8152 11.8326 13.8002 11.84H10.0002C9.98299 11.9456 9.95621 12.0493 9.92023 12.15C9.88965 12.2359 9.85288 12.3195 9.81023 12.4H14.5402C14.5119 12.5463 14.5166 12.697 14.554 12.8413C14.5914 12.9855 14.6606 13.1195 14.7564 13.2335C14.8523 13.3476 14.9724 13.4388 15.108 13.5005C15.2436 13.5622 15.3913 13.5928 15.5402 13.59C15.9716 13.5901 16.3929 13.4605 16.7496 13.2179C17.1063 12.9754 17.3818 12.6312 17.5402 12.23C17.6298 12.0007 17.6472 11.7495 17.5902 11.51H18.3802V11.46ZM16.5902 12.24C16.5323 12.3742 16.4378 12.4894 16.3176 12.5725C16.1974 12.6556 16.0562 12.7033 15.9102 12.71C15.8498 12.7137 15.7896 12.7011 15.7357 12.6737C15.6818 12.6462 15.6361 12.6049 15.6035 12.5539C15.5709 12.503 15.5525 12.4442 15.5502 12.3838C15.5478 12.3233 15.5617 12.2634 15.5902 12.21C15.6482 12.0759 15.7426 11.9607 15.8629 11.8776C15.9831 11.7945 16.1242 11.7468 16.2702 11.74C16.3306 11.7364 16.3909 11.749 16.4448 11.7764C16.4987 11.8039 16.5443 11.8452 16.5769 11.8962C16.6095 11.9471 16.628 12.0058 16.6303 12.0663C16.6326 12.1267 16.6188 12.1867 16.5902 12.24Z" fill="#000B68"/>
<path d="M16.7805 9.31982H16.8605V8.31982H16.7805C16.6559 8.31982 16.5363 8.36934 16.4482 8.45748C16.3601 8.54563 16.3105 8.66517 16.3105 8.78982V8.84982C16.3105 8.97448 16.3601 9.09402 16.4482 9.18217C16.5363 9.27031 16.6559 9.31982 16.7805 9.31982Z" fill="#000B68"/>
<path d="M11.4896 10.4802C11.5294 10.4802 11.5675 10.4644 11.5957 10.4362C11.6238 10.4081 11.6396 10.37 11.6396 10.3302C11.6396 10.2904 11.6238 10.2522 11.5957 10.2241C11.5675 10.196 11.5294 10.1802 11.4896 10.1802H10.3496C10.3098 10.1802 10.2717 10.196 10.2435 10.2241C10.2154 10.2522 10.1996 10.2904 10.1996 10.3302C10.1981 10.3503 10.201 10.3704 10.208 10.3893C10.215 10.4082 10.226 10.4253 10.2402 10.4396C10.2545 10.4538 10.2716 10.4648 10.2905 10.4718C10.3094 10.4788 10.3295 10.4817 10.3496 10.4802H11.4896Z" fill="#000B68"/>
<path d="M12.7402 9.93023C12.764 9.93023 12.7869 9.92075 12.8038 9.90387C12.8207 9.887 12.8302 9.8641 12.8302 9.84023C12.8303 9.81536 12.8211 9.79133 12.8045 9.77284C12.7878 9.75435 12.7649 9.74272 12.7402 9.74023H12.2502C12.2254 9.74272 12.2025 9.75435 12.1858 9.77284C12.1692 9.79133 12.16 9.81536 12.1602 9.84023C12.1602 9.8641 12.1696 9.887 12.1865 9.90387C12.2034 9.92075 12.2263 9.93023 12.2502 9.93023H12.7402Z" fill="#000B68"/>
<path d="M5.92985 8.00013H6.40984C6.43637 8.00013 6.4618 7.98959 6.48056 7.97084C6.49931 7.95208 6.50985 7.92665 6.50985 7.90013C6.50992 7.88742 6.50731 7.87484 6.50217 7.86321C6.49704 7.85158 6.4895 7.84118 6.48005 7.83267C6.47061 7.82417 6.45947 7.81777 6.44736 7.81388C6.43526 7.80999 6.42248 7.80872 6.40984 7.81013H5.92985C5.90598 7.81013 5.88308 7.81961 5.86621 7.83649C5.84933 7.85337 5.83985 7.87626 5.83985 7.90013C5.83972 7.925 5.84887 7.94903 5.86551 7.96753C5.88216 7.98602 5.90509 7.99764 5.92985 8.00013Z" fill="#000B68"/>
<path d="M6.92977 11.5402C6.92977 11.5163 6.92028 11.4934 6.90341 11.4766C6.88653 11.4597 6.86364 11.4502 6.83977 11.4502H6.35977C6.33489 11.4501 6.31086 11.4592 6.29237 11.4759C6.27388 11.4925 6.26225 11.5154 6.25977 11.5402C6.25977 11.5667 6.2703 11.5922 6.28905 11.6109C6.30781 11.6297 6.33324 11.6402 6.35977 11.6402H6.83977C6.85248 11.6403 6.86506 11.6377 6.87668 11.6325C6.88831 11.6274 6.89872 11.6199 6.90722 11.6104C6.91572 11.601 6.92213 11.5898 6.92601 11.5777C6.9299 11.5656 6.93118 11.5528 6.92977 11.5402Z" fill="#000B68"/>
<path d="M10.5302 6.27981H11.6102C11.6393 6.27981 11.6673 6.26822 11.6879 6.24759C11.7086 6.22696 11.7202 6.19898 11.7202 6.16981C11.7216 6.15454 11.7197 6.13916 11.7148 6.12463C11.7099 6.11011 11.7021 6.09677 11.6917 6.08547C11.6813 6.07418 11.6687 6.06517 11.6547 6.05902C11.6407 6.05288 11.6255 6.04974 11.6102 6.04981H10.5302C10.4983 6.04981 10.4678 6.06245 10.4453 6.08495C10.4228 6.10746 10.4102 6.13798 10.4102 6.16981C10.4101 6.18513 10.4132 6.2003 10.4194 6.21434C10.4255 6.22839 10.4345 6.24099 10.4458 6.25135C10.4571 6.2617 10.4705 6.26959 10.485 6.27449C10.4995 6.27939 10.5149 6.2812 10.5302 6.27981Z" fill="#000B68"/>
<path d="M9.69031 10.4599C9.72214 10.4599 9.75266 10.4473 9.77517 10.4248C9.79767 10.4023 9.81031 10.3718 9.81031 10.3399C9.8078 10.3099 9.79405 10.2819 9.77182 10.2615C9.74958 10.2411 9.72048 10.2298 9.69031 10.2299H8.69031C8.67505 10.2286 8.65966 10.2304 8.64514 10.2353C8.63062 10.2402 8.61728 10.248 8.60598 10.2584C8.59468 10.2688 8.58568 10.2814 8.57953 10.2954C8.57339 10.3095 8.57025 10.3246 8.57031 10.3399C8.57031 10.3718 8.58296 10.4023 8.60546 10.4248C8.62796 10.4473 8.65849 10.4599 8.69031 10.4599H9.69031Z" fill="#000B68"/>
<path d="M7.19086 11.1002C7.19086 11.0711 7.17927 11.0431 7.15864 11.0225C7.13801 11.0018 7.11003 10.9902 7.08086 10.9902H6.00086C5.97069 10.9901 5.94159 11.0014 5.91936 11.0218C5.89712 11.0422 5.88337 11.0702 5.88086 11.1002C5.88086 11.1321 5.8935 11.1626 5.91601 11.1851C5.93851 11.2076 5.96903 11.2202 6.00086 11.2202H7.00086C7.01677 11.2454 7.04204 11.2633 7.07111 11.2698C7.10018 11.2764 7.13066 11.2711 7.15586 11.2552C7.18105 11.2393 7.1989 11.2141 7.20546 11.185C7.21202 11.1559 7.20677 11.1254 7.19086 11.1002Z" fill="#000B68"/>
<path d="M8.80063 10.7302C8.36931 10.7301 7.94794 10.8598 7.59127 11.1023C7.23459 11.3448 6.95912 11.689 6.80063 12.0902C6.72652 12.2455 6.69373 12.4173 6.70544 12.589C6.71716 12.7606 6.77297 12.9264 6.8675 13.0702C6.96202 13.214 7.09205 13.331 7.245 13.4098C7.39796 13.4886 7.56867 13.5267 7.74063 13.5202C8.17164 13.5189 8.59241 13.3887 8.94883 13.1464C9.30524 12.904 9.581 12.5606 9.74063 12.1602C9.81475 12.0049 9.84753 11.8331 9.83582 11.6614C9.82411 11.4897 9.76829 11.324 9.67377 11.1802C9.57925 11.0364 9.44922 10.9194 9.29626 10.8406C9.1433 10.7618 8.97259 10.7237 8.80063 10.7302ZM8.72063 12.1602C8.6658 12.2965 8.57212 12.4138 8.45123 12.4973C8.33034 12.5809 8.18756 12.6271 8.04063 12.6302C7.98162 12.6328 7.92295 12.62 7.8704 12.593C7.81784 12.5661 7.77322 12.5259 7.74092 12.4764C7.70862 12.427 7.68977 12.37 7.68621 12.311C7.68265 12.252 7.69452 12.1932 7.72063 12.1402C7.7737 12.0046 7.86557 11.8877 7.98474 11.8041C8.10392 11.7205 8.24511 11.674 8.39063 11.6702C8.45046 11.6657 8.51042 11.6772 8.5644 11.7034C8.61838 11.7295 8.66447 11.7696 8.69799 11.8193C8.7315 11.8691 8.75125 11.9268 8.75523 11.9867C8.75921 12.0466 8.74727 12.1064 8.72063 12.1602Z" fill="#000B68"/>
</g>
<defs>
<clipPath id="clip0_383_34">
<rect width="191" height="18" fill="white"/>
</clipPath>
</defs>
</svg>
