<?xml version="1.0" encoding="utf-8"?>
<!-- Generator: Adobe Illustrator 24.3.0, SVG Export Plug-In . SVG Version: 6.00 Build 0)  -->
<svg version="1.1" id="Layer_1" xmlns="http://www.w3.org/2000/svg" xmlns:xlink="http://www.w3.org/1999/xlink" x="0px" y="0px"
	 viewBox="0 0 512 512" style="enable-background:new 0 0 512 512;" xml:space="preserve">
<style type="text/css">
	.st0{fill:#89BA19;}
</style>
<g id="_x23_89ba19ff">
	<path class="st0" d="M84.56,194.47h24.09c13.85,1.11,29.21,2.35,40.15,11.77c7.48,6.37,8.86,17.17,6.92,26.31
		c7.34-12.18,18.41-22.01,31.29-28.11c13.98-6.78,29.63-9.41,45-9.97h13.71c6.92,0.69,14.68-0.42,20.49,4.02
		c4.15,3.18,3.6,8.86,4.43,13.43c0.14,2.49,1.52,6.23-1.52,7.75c-15.65-0.83-31.43-2.77-47.07-0.42
		c-11.21,1.66-22.43,6.23-30.18,14.68c-8.31,8.72-12.05,20.77-14.12,32.4c-0.97,6.09-1.52,13.01,2.22,18.28
		c4.43,5.4,11.91,6.92,18.41,8.03c18.41,2.22,37.11-0.14,55.52-1.11c-4.29-12.88-1.66-26.72,2.49-39.32
		c5.26-16.2,15.23-31.29,29.49-41.12c16.48-11.63,36.97-15.78,56.9-16.61h15.78c11.49,0.83,23.12,1.66,33.92,5.95
		c5.82,2.35,11.63,6.09,14.4,12.05c1.8,3.6,1.8,7.75,1.52,11.63c7.06-12.32,19.38-20.63,32.67-24.78
		c9.14-3.05,18.69-4.15,28.38-4.71h16.48c6.78,0.42,13.71-0.14,20.21,1.66c2.77,0.69,4.71,2.91,5.95,5.26v2.49
		c-1.52,4.43-3.05,9-4.98,13.43c-1.11,2.49-3.88,2.91-6.23,2.77c-9.55-0.42-19.24-0.28-28.8-0.42c-8.03,0-16.61,0.28-23.68,4.29
		c-4.15,2.35-7.2,6.37-8.45,10.94c-7.48,25.75-14.81,51.64-22.29,77.53c-0.55,2.77-3.18,4.71-5.95,4.57c-8.58,0.14-17.03,0-25.61,0
		c-2.08,0-4.85-0.28-5.26-2.63c0.28-2.77,1.25-5.4,1.94-8.17c6.37-21.74,12.46-43.61,18.83-65.35
		c-4.43,5.95-10.25,10.66-16.89,14.12c-11.35,5.95-24.09,8.86-36.69,10.52c-20.91,2.63-41.81,5.4-62.58,8.03
		c0.14,4.71,0.97,9.69,4.43,13.15c4.98,5.26,12.6,5.95,19.38,6.65c21.88,1.66,43.75-0.83,65.63-1.38c1.25-0.28,2.91,0.55,2.49,2.08
		c-1.11,4.85-2.91,9.55-4.15,14.4c-1.38,4.57-6.37,6.51-10.66,7.2c-9.83,1.38-19.94,1.38-29.77,1.66
		c-17.72,0.14-35.72,1.25-52.89-3.88c-8.86-2.63-17.45-7.61-22.71-15.37c-0.97,4.15-1.11,8.58-3.32,12.18
		c-3.05,4.29-8.72,4.98-13.57,5.82c-12.74,1.52-25.61,1.52-38.35,1.66c-16.06,0-33.64-1.38-46.94-11.35
		c-9.14-6.78-12.88-18.41-12.6-29.35c-2.91,9.41-5.68,18.69-8.86,28.11c-1.94,5.26-7.75,7.2-12.74,8.17
		c-17.86,3.18-36,4.15-54.14,4.43c-14.12,0.14-28.52-0.14-42.37-3.6c-7.34-1.94-14.81-4.85-19.8-10.8
		c-2.49-2.91-3.88-6.65-4.43-10.52v-4.71c0.69-5.82,2.49-11.63,5.95-16.34c4.71-6.65,11.63-11.35,18.97-14.81
		c11.77-5.54,24.64-8.17,37.52-9.97c17.86-2.22,35.58-4.98,53.44-7.89c7.89-0.55,9.41-12.46,3.6-16.61
		c-6.51-4.85-15.23-5.12-22.98-5.54c-19.94-0.14-39.74,1.94-59.53,3.6c-1.52,0-2.91,0-4.43-0.28c0.55-4.98,2.35-9.69,4.02-14.4
		c1.94-5.26,7.61-7.75,12.74-8.45C60.74,195.02,72.79,194.88,84.56,194.47 M305.53,225.76c-8.17,7.34-11.91,17.86-14.95,28.11
		c16.75-2.35,33.64-4.71,50.4-7.2c8.86-1.52,17.86-3.32,25.61-8.03c4.29-2.63,7.89-7.2,7.34-12.46c-0.55-4.71-5.4-7.06-9.41-8.17
		c-9.69-2.63-19.94-2.22-29.91-1.8C324.63,217.17,313.56,218.83,305.53,225.76 M53.68,266.88c-8.03,1.11-17.03,5.82-18.55,14.54
		c-1.25,4.71,2.63,8.72,6.78,10.38c8.72,3.46,18.41,3.6,27.69,3.6c11.21,0,22.43-0.28,33.64-1.8c3.6-11.63,7.34-23.26,10.94-34.89
		C93.83,261.48,73.76,264.11,53.68,266.88z"/>
</g>
</svg>
