<?xml version="1.0" encoding="utf-8"?>
<!-- Generator: Adobe Illustrator 24.3.0, SVG Export Plug-In . SVG Version: 6.00 Build 0)  -->
<svg version="1.1" id="Layer_1" xmlns="http://www.w3.org/2000/svg" xmlns:xlink="http://www.w3.org/1999/xlink" x="0px" y="0px"
	 viewBox="0 0 512 512" style="enable-background:new 1 0 512 512;" xml:space="preserve" >
<style type="text/css">
	.st0{fill:#0083CA;}
</style>
<g id="XMLID_1_">
	<path class="st0" d="M248.1,0.75c5.27,0,10.53,0,15.8,0c77.24,4.39,132.24,33.65,173.06,74.75S507.9,170.74,512,248.27
		c0,5.12,0,10.24,0,15.36c-3.95,78.7-34.67,130.78-75.04,173.06c-42.42,40.23-94.65,70.66-173.35,74.46c-5.27,0-10.39,0-15.65,0
		c-77.24-4.39-132.24-33.65-173.06-74.75C34.23,395.43,4.1,341.16,0,263.78c0-5.12,0-10.24,0-15.36c0.15,0,0.29-0.15,0.29-0.59
		c3.8-77.24,34.23-131.95,74.75-172.62C115.71,34.55,171.3,5,248.1,0.75z M197.92,37.33c-15.21,4.1-28.82,9.22-41.25,15.36
		c-37.6,18.58-68.61,45.2-90.4,79.43c-21.21,33.35-39.5,76.21-36.86,132.39c1.61,35.4,9.8,65.24,22.53,90.7
		c25.16,50.18,63.63,87.04,116.74,109.57c26.33,11.12,58.81,18.87,95.52,17.12c35.11-1.61,65.68-9.51,90.84-22.24
		c49.44-24.87,88.5-63.2,110.15-116.3c10.97-26.77,19.16-57.78,17.41-95.23c-3.36-71.09-32.33-119.22-70.36-155.94
		c-18.87-18.14-41.55-33.65-68.32-44.76c-26.04-10.83-59.83-18.87-95.96-17.12C229.96,31.04,213.28,33.23,197.92,37.33z"/>
	<path class="st0" d="M232.45,189.76c8.05,5.41,16.38,10.53,24.14,16.38c-17.26,10.83-34.23,22.09-51.49,33.06
		c2.63,2.05,5.56,3.66,8.19,5.56c17.41-10.97,34.67-21.94,51.93-33.06c7.75,4.83,15.36,9.65,22.53,15.07
		c-17.26,10.97-34.08,22.38-51.2,33.5c2.49,2.05,5.71,3.51,8.48,5.41c17.7-10.83,34.96-22.09,52.52-33.21c0-12.14,0-24.28,0-36.43
		c12.73,0,25.6,0,38.47,0c0,24.14,0,48.27,0,72.41c10.83,0.59,22.82,0.15,34.08,0.29c0,11.41,0,22.67,0,34.08
		c-24.14,0-48.27,0-72.41,0c0-11.56,0-22.97,0-34.52c-21.36,12.87-43.15,27.5-64.51,41.25c-22.24-14.48-43.74-29.84-65.97-44.32
		c-6.44,20.48-21.8,35.84-47.1,37.6c-15.8,1.17-33.79-0.88-51.93,0c0-35.55,0-71.24,0-106.79c22.82,1.46,47.69-3.07,65.83,2.49
		c15.95,4.97,27.21,17.7,32.48,33.5C188.42,218.28,210.36,203.95,232.45,189.76z M104.45,230.42c0,12.73,0,25.6,0,38.33
		c9.22,0,16.09,0.59,21.5-3.51c8.05-6.14,9.65-21.5,2.49-29.7c-4.68-5.41-12.73-6.58-23.84-5.85
		C104.45,229.69,104.45,230.13,104.45,230.42z"/>
	<path id="XMLID_2_" class="st0" d="M379.9,196.05c12.87,0,25.6,0,38.33,0c0,24.28,0,48.42,0,72.7c11.26,0,22.53,0,33.79,0
		c0,11.41,0,22.67,0,34.08c-24.14,0-48.27,0-72.41,0c0-35.4,0-70.66,0-105.91C379.61,196.48,379.61,196.19,379.9,196.05z"/>
</g>
</svg>
